solid boardmodify
facet normal -2.22044640781523e-016 3.21077589125976e-023 -1.0
outer loop
vertex -16.75 5.35 3.63043e-015
vertex -10.9781 3.95791 2.43764e-015
vertex -10.9976 3.81976 2.44195e-015
endloop
endfacet
facet normal -2.22044640781523e-016 3.21077589125976e-023 -1.0
outer loop
vertex -10.9781 3.95791 2.43764e-015
vertex -16.75 5.35 3.63043e-015
vertex -10.9397 4.09202 2.4291e-015
endloop
endfacet
facet normal -2.22044640781523e-016 3.21077589125976e-023 -1.0
outer loop
vertex -10.9397 4.09202 2.4291e-015
vertex -16.75 5.35 3.63043e-015
vertex -10.8829 4.21947 2.4165e-015
endloop
endfacet
facet normal -2.22044640781523e-016 3.21077589125976e-023 -1.0
outer loop
vertex -10.8829 4.21947 2.4165e-015
vertex -16.75 5.35 3.63043e-015
vertex -10.809 4.33778 2.40008e-015
endloop
endfacet
facet normal -2.22044640781523e-016 3.21077589125976e-023 -1.0
outer loop
vertex -10.809 4.33778 2.40008e-015
vertex -16.75 5.35 3.63043e-015
vertex -10.7193 4.44466 2.38017e-015
endloop
endfacet
facet normal -2.22044640781523e-016 3.21077589125976e-023 -1.0
outer loop
vertex -10.7193 4.44466 2.38017e-015
vertex -16.75 5.35 3.63043e-015
vertex -10.6157 4.53801 2.35715e-015
endloop
endfacet
facet normal -2.22044640781523e-016 3.21077589125976e-023 -1.0
outer loop
vertex -10.6157 4.53801 2.35715e-015
vertex -16.75 5.35 3.63043e-015
vertex -10.5 4.61602 2.33147e-015
endloop
endfacet
facet normal -2.22044640781523e-016 3.21077589125976e-023 -1.0
outer loop
vertex -10.5 4.61602 2.33147e-015
vertex -16.75 5.35 3.63043e-015
vertex -10.3746 4.67718 2.30363e-015
endloop
endfacet
facet normal -2.22044640781523e-016 3.21077589125976e-023 -1.0
outer loop
vertex -10.3746 4.67718 2.30363e-015
vertex -16.75 5.35 3.63043e-015
vertex -10.2419 4.7203 2.27416e-015
endloop
endfacet
facet normal -2.22044640781523e-016 3.21077589125976e-023 -1.0
outer loop
vertex -10.2419 4.7203 2.27416e-015
vertex -16.75 5.35 3.63043e-015
vertex -10.1045 4.74452 2.24366e-015
endloop
endfacet
facet normal -2.22044640781523e-016 3.21077589125976e-023 -1.0
outer loop
vertex -10.1045 4.74452 2.24366e-015
vertex -16.75 5.35 3.63043e-015
vertex -3.35 5.35 8.32667e-016
endloop
endfacet
facet normal -2.22044640781523e-016 3.21077589125976e-023 -1.0
outer loop
vertex -10.1045 4.74452 2.24366e-015
vertex -3.35 5.35 8.32667e-016
vertex -9.9651 4.74939 2.2127e-015
endloop
endfacet
facet normal -2.22044640781523e-016 3.21077589125976e-023 -1.0
outer loop
vertex -9.9651 4.74939 2.2127e-015
vertex -3.35 5.35 8.32667e-016
vertex -9.82635 4.73481 2.18189e-015
endloop
endfacet
facet normal -2.22044640781523e-016 3.21077589125976e-023 -1.0
outer loop
vertex -9.82635 4.73481 2.18189e-015
vertex -3.35 5.35 8.32667e-016
vertex -9.69098 4.70106 2.15183e-015
endloop
endfacet
facet normal -2.22044640781523e-016 3.21077589125976e-023 -1.0
outer loop
vertex -9.69098 4.70106 2.15183e-015
vertex -3.35 5.35 8.32667e-016
vertex -9.56163 4.64879 2.12311e-015
endloop
endfacet
facet normal -2.22044640781523e-016 3.21077589125976e-023 -1.0
outer loop
vertex -9.56163 4.64879 2.12311e-015
vertex -3.35 5.35 8.32667e-016
vertex -9.44081 4.57904 2.09628e-015
endloop
endfacet
facet normal -2.22044640781523e-016 3.21077589125976e-023 -1.0
outer loop
vertex -9.44081 4.57904 2.09628e-015
vertex -3.35 5.35 8.32667e-016
vertex -9.33087 4.49314 2.07187e-015
endloop
endfacet
facet normal -2.22044640781523e-016 3.21077589125976e-023 -1.0
outer loop
vertex -9.33087 4.49314 2.07187e-015
vertex -3.35 5.35 8.32667e-016
vertex -9.23396 4.39279 2.05035e-015
endloop
endfacet
facet normal -2.22044640781523e-016 3.21077589125976e-023 -1.0
outer loop
vertex -9.23396 4.39279 2.05035e-015
vertex -3.35 5.35 8.32667e-016
vertex -9.15195 4.27992 2.03214e-015
endloop
endfacet
facet normal -2.22044640781523e-016 3.21077589125976e-023 -1.0
outer loop
vertex -9.15195 4.27992 2.03214e-015
vertex -3.35 5.35 8.32667e-016
vertex -9.08646 4.15674 2.0176e-015
endloop
endfacet
facet normal -2.22044640781523e-016 3.21077589125976e-023 -1.0
outer loop
vertex -9.08646 4.15674 2.0176e-015
vertex -3.35 5.35 8.32667e-016
vertex -9.03874 4.02564 2.007e-015
endloop
endfacet
facet normal -2.22044640781523e-016 3.21077589125976e-023 -1.0
outer loop
vertex -9.03874 4.02564 2.007e-015
vertex -3.35 5.35 8.32667e-016
vertex -9.00973 3.88917 2.00056e-015
endloop
endfacet
facet normal -2.22044640781523e-016 3.21077589125976e-023 -1.0
outer loop
vertex -9.00973 3.88917 2.00056e-015
vertex -3.35 5.35 8.32667e-016
vertex -9.0 3.75 1.9984e-015
endloop
endfacet
facet normal -2.22044640781523e-016 3.21077589125976e-023 -1.0
outer loop
vertex -20.0 43.0 4.44089e-015
vertex -16.75 29.65 3.63043e-015
vertex -20.0 0.0 4.44089e-015
endloop
endfacet
facet normal -2.22044640781523e-016 3.21077589125976e-023 -1.0
outer loop
vertex -16.75 29.65 3.63043e-015
vertex -20.0 43.0 4.44089e-015
vertex 0.0 43.0 0.0
endloop
endfacet
facet normal -2.22044640781523e-016 3.21077589125976e-023 -1.0
outer loop
vertex -16.75 29.65 3.63043e-015
vertex 0.0 43.0 0.0
vertex -10.7193 31.9447 2.38017e-015
endloop
endfacet
facet normal -2.22044640781523e-016 3.21077589125976e-023 -1.0
outer loop
vertex -16.75 29.65 3.63043e-015
vertex -10.7193 31.9447 2.38017e-015
vertex -10.809 31.8378 2.40008e-015
endloop
endfacet
facet normal -2.22044640781523e-016 3.21077589125976e-023 -1.0
outer loop
vertex -16.75 29.65 3.63043e-015
vertex -10.809 31.8378 2.40008e-015
vertex -10.8829 31.7195 2.4165e-015
endloop
endfacet
facet normal -2.22044640781523e-016 3.21077589125976e-023 -1.0
outer loop
vertex -16.75 29.65 3.63043e-015
vertex -10.8829 31.7195 2.4165e-015
vertex -10.9397 31.592 2.4291e-015
endloop
endfacet
facet normal -2.22044640781523e-016 3.21077589125976e-023 -1.0
outer loop
vertex -16.75 29.65 3.63043e-015
vertex -10.9397 31.592 2.4291e-015
vertex -10.9781 31.4579 2.43764e-015
endloop
endfacet
facet normal -2.22044640781523e-016 3.21077589125976e-023 -1.0
outer loop
vertex -16.75 29.65 3.63043e-015
vertex -10.9781 31.4579 2.43764e-015
vertex -10.9976 31.3198 2.44195e-015
endloop
endfacet
facet normal -2.22044640781523e-016 3.21077589125976e-023 -1.0
outer loop
vertex -10.7193 31.9447 2.38017e-015
vertex 0.0 43.0 0.0
vertex -10.6157 32.038 2.35715e-015
endloop
endfacet
facet normal -2.22044640781523e-016 3.21077589125976e-023 -1.0
outer loop
vertex -10.6157 32.038 2.35715e-015
vertex 0.0 43.0 0.0
vertex -10.5 32.116 2.33147e-015
endloop
endfacet
facet normal -2.22044640781523e-016 3.21077589125976e-023 -1.0
outer loop
vertex -10.5 32.116 2.33147e-015
vertex 0.0 43.0 0.0
vertex -10.3746 32.1772 2.30363e-015
endloop
endfacet
facet normal -2.22044640781523e-016 3.21077589125976e-023 -1.0
outer loop
vertex -10.3746 32.1772 2.30363e-015
vertex 0.0 43.0 0.0
vertex -10.2419 32.2203 2.27416e-015
endloop
endfacet
facet normal -2.22044640781523e-016 3.21077589125976e-023 -1.0
outer loop
vertex -10.2419 32.2203 2.27416e-015
vertex 0.0 43.0 0.0
vertex -10.1045 32.2445 2.24366e-015
endloop
endfacet
facet normal -2.22044640781523e-016 3.21077589125976e-023 -1.0
outer loop
vertex -10.1045 32.2445 2.24366e-015
vertex 0.0 43.0 0.0
vertex -9.9651 32.2494 2.2127e-015
endloop
endfacet
facet normal -2.22044640781523e-016 3.21077589125976e-023 -1.0
outer loop
vertex -9.9651 32.2494 2.2127e-015
vertex 0.0 43.0 0.0
vertex -9.82635 32.2348 2.18189e-015
endloop
endfacet
facet normal -2.22044640781523e-016 3.21077589125976e-023 -1.0
outer loop
vertex -9.82635 32.2348 2.18189e-015
vertex 0.0 43.0 0.0
vertex -9.69098 32.2011 2.15183e-015
endloop
endfacet
facet normal -2.22044640781523e-016 3.21077589125976e-023 -1.0
outer loop
vertex -9.69098 32.2011 2.15183e-015
vertex 0.0 43.0 0.0
vertex -9.56163 32.1488 2.12311e-015
endloop
endfacet
facet normal -2.22044640781523e-016 3.21077589125976e-023 -1.0
outer loop
vertex -9.56163 32.1488 2.12311e-015
vertex 0.0 43.0 0.0
vertex -9.44081 32.079 2.09628e-015
endloop
endfacet
facet normal -2.22044640781523e-016 3.21077589125976e-023 -1.0
outer loop
vertex -9.44081 32.079 2.09628e-015
vertex 0.0 43.0 0.0
vertex -9.33087 31.9931 2.07187e-015
endloop
endfacet
facet normal -2.22044640781523e-016 3.21077589125976e-023 -1.0
outer loop
vertex -9.33087 31.9931 2.07187e-015
vertex 0.0 43.0 0.0
vertex -9.23396 31.8928 2.05035e-015
endloop
endfacet
facet normal -2.22044640781523e-016 3.21077589125976e-023 -1.0
outer loop
vertex -9.23396 31.8928 2.05035e-015
vertex 0.0 43.0 0.0
vertex -9.15195 31.7799 2.03214e-015
endloop
endfacet
facet normal -2.22044640781523e-016 3.21077589125976e-023 -1.0
outer loop
vertex -9.15195 31.7799 2.03214e-015
vertex 0.0 43.0 0.0
vertex -9.08646 31.6567 2.0176e-015
endloop
endfacet
facet normal -2.22044640781523e-016 3.21077589125976e-023 -1.0
outer loop
vertex -9.08646 31.6567 2.0176e-015
vertex 0.0 43.0 0.0
vertex -9.03874 31.5256 2.007e-015
endloop
endfacet
facet normal -2.22044640781523e-016 3.21077589125976e-023 -1.0
outer loop
vertex -9.03874 31.5256 2.007e-015
vertex 0.0 43.0 0.0
vertex -9.00973 31.3892 2.00056e-015
endloop
endfacet
facet normal -2.22044640781523e-016 3.21077589125976e-023 -1.0
outer loop
vertex -9.00973 31.3892 2.00056e-015
vertex 0.0 43.0 0.0
vertex -9.0 31.25 1.9984e-015
endloop
endfacet
facet normal -2.22044640781523e-016 3.21077589125976e-023 -1.0
outer loop
vertex -9.0 31.25 1.9984e-015
vertex 0.0 43.0 0.0
vertex -3.35 29.65 8.32667e-016
endloop
endfacet
facet normal -2.22044640781523e-016 3.21077589125976e-023 -1.0
outer loop
vertex -3.35 29.65 8.32667e-016
vertex 0.0 43.0 0.0
vertex -3.35 5.35 8.32667e-016
endloop
endfacet
facet normal -2.22044640781523e-016 3.21077589125976e-023 -1.0
outer loop
vertex -20.0 0.0 4.44089e-015
vertex -10.2419 2.7797 2.27416e-015
vertex 0.0 0.0 0.0
endloop
endfacet
facet normal -2.22044640781523e-016 3.21077589125976e-023 -1.0
outer loop
vertex -10.2419 2.7797 2.27416e-015
vertex -20.0 0.0 4.44089e-015
vertex -10.3746 2.82282 2.30363e-015
endloop
endfacet
facet normal -2.22044640781523e-016 3.21077589125976e-023 -1.0
outer loop
vertex -10.3746 2.82282 2.30363e-015
vertex -20.0 0.0 4.44089e-015
vertex -16.75 5.35 3.63043e-015
endloop
endfacet
facet normal -2.22044640781523e-016 3.21077589125976e-023 -1.0
outer loop
vertex -16.75 5.35 3.63043e-015
vertex -20.0 0.0 4.44089e-015
vertex -16.75 29.65 3.63043e-015
endloop
endfacet
facet normal -2.22044640781523e-016 3.21077589125976e-023 -1.0
outer loop
vertex -10.3746 2.82282 2.30363e-015
vertex -16.75 5.35 3.63043e-015
vertex -10.5 2.88397 2.33147e-015
endloop
endfacet
facet normal -2.22044640781523e-016 3.21077589125976e-023 -1.0
outer loop
vertex -10.5 2.88397 2.33147e-015
vertex -16.75 5.35 3.63043e-015
vertex -10.6157 2.96199 2.35715e-015
endloop
endfacet
facet normal -2.22044640781523e-016 3.21077589125976e-023 -1.0
outer loop
vertex -10.6157 2.96199 2.35715e-015
vertex -16.75 5.35 3.63043e-015
vertex -10.7193 3.05534 2.38017e-015
endloop
endfacet
facet normal -2.22044640781523e-016 3.21077589125976e-023 -1.0
outer loop
vertex -10.7193 3.05534 2.38017e-015
vertex -16.75 5.35 3.63043e-015
vertex -10.809 3.16221 2.40008e-015
endloop
endfacet
facet normal -2.22044640781523e-016 3.21077589125976e-023 -1.0
outer loop
vertex -10.809 3.16221 2.40008e-015
vertex -16.75 5.35 3.63043e-015
vertex -10.8829 3.28053 2.4165e-015
endloop
endfacet
facet normal -2.22044640781523e-016 3.21077589125976e-023 -1.0
outer loop
vertex -10.8829 3.28053 2.4165e-015
vertex -16.75 5.35 3.63043e-015
vertex -10.9397 3.40798 2.4291e-015
endloop
endfacet
facet normal -2.22044640781523e-016 3.21077589125976e-023 -1.0
outer loop
vertex -10.9397 3.40798 2.4291e-015
vertex -16.75 5.35 3.63043e-015
vertex -10.9781 3.54209 2.43764e-015
endloop
endfacet
facet normal -2.22044640781523e-016 3.21077589125976e-023 -1.0
outer loop
vertex -10.9781 3.54209 2.43764e-015
vertex -16.75 5.35 3.63043e-015
vertex -10.9976 3.68024 2.44195e-015
endloop
endfacet
facet normal -2.22044640781523e-016 3.21077589125976e-023 -1.0
outer loop
vertex -10.9976 3.68024 2.44195e-015
vertex -16.75 5.35 3.63043e-015
vertex -10.9976 3.81976 2.44195e-015
endloop
endfacet
facet normal -2.22044640781523e-016 3.21077589125976e-023 -1.0
outer loop
vertex 0.0 0.0 0.0
vertex -10.2419 2.7797 2.27416e-015
vertex -10.1045 2.75548 2.24366e-015
endloop
endfacet
facet normal -2.22044640781523e-016 3.21077589125976e-023 -1.0
outer loop
vertex 0.0 0.0 0.0
vertex -10.1045 2.75548 2.24366e-015
vertex -9.9651 2.75061 2.2127e-015
endloop
endfacet
facet normal -2.22044640781523e-016 3.21077589125976e-023 -1.0
outer loop
vertex 0.0 0.0 0.0
vertex -9.9651 2.75061 2.2127e-015
vertex -9.82635 2.76519 2.18189e-015
endloop
endfacet
facet normal -2.22044640781523e-016 3.21077589125976e-023 -1.0
outer loop
vertex 0.0 0.0 0.0
vertex -9.82635 2.76519 2.18189e-015
vertex -9.69098 2.79894 2.15183e-015
endloop
endfacet
facet normal -2.22044640781523e-016 3.21077589125976e-023 -1.0
outer loop
vertex 0.0 0.0 0.0
vertex -9.69098 2.79894 2.15183e-015
vertex -9.56163 2.85121 2.12311e-015
endloop
endfacet
facet normal -2.22044640781523e-016 3.21077589125976e-023 -1.0
outer loop
vertex 0.0 0.0 0.0
vertex -9.56163 2.85121 2.12311e-015
vertex -9.44081 2.92096 2.09628e-015
endloop
endfacet
facet normal -2.22044640781523e-016 3.21077589125976e-023 -1.0
outer loop
vertex 0.0 0.0 0.0
vertex -9.44081 2.92096 2.09628e-015
vertex -9.33087 3.00685 2.07187e-015
endloop
endfacet
facet normal -2.22044640781523e-016 3.21077589125976e-023 -1.0
outer loop
vertex 0.0 0.0 0.0
vertex -9.33087 3.00685 2.07187e-015
vertex -9.23396 3.10721 2.05035e-015
endloop
endfacet
facet normal -2.22044640781523e-016 3.21077589125976e-023 -1.0
outer loop
vertex 0.0 0.0 0.0
vertex -9.23396 3.10721 2.05035e-015
vertex -9.15195 3.22008 2.03214e-015
endloop
endfacet
facet normal -2.22044640781523e-016 3.21077589125976e-023 -1.0
outer loop
vertex 0.0 0.0 0.0
vertex -9.15195 3.22008 2.03214e-015
vertex -9.08646 3.34326 2.0176e-015
endloop
endfacet
facet normal -2.22044640781523e-016 3.21077589125976e-023 -1.0
outer loop
vertex 0.0 0.0 0.0
vertex -9.08646 3.34326 2.0176e-015
vertex -9.03874 3.47436 2.007e-015
endloop
endfacet
facet normal -2.22044640781523e-016 3.21077589125976e-023 -1.0
outer loop
vertex 0.0 0.0 0.0
vertex -9.03874 3.47436 2.007e-015
vertex -9.00973 3.61083 2.00056e-015
endloop
endfacet
facet normal -2.22044640781523e-016 3.21077589125976e-023 -1.0
outer loop
vertex 0.0 0.0 0.0
vertex -9.00973 3.61083 2.00056e-015
vertex -9.0 3.75 1.9984e-015
endloop
endfacet
facet normal -2.22044640781523e-016 3.21077589125976e-023 -1.0
outer loop
vertex 0.0 0.0 0.0
vertex -9.0 3.75 1.9984e-015
vertex -3.35 5.35 8.32667e-016
endloop
endfacet
facet normal -2.22044640781523e-016 3.21077589125976e-023 -1.0
outer loop
vertex 0.0 0.0 0.0
vertex -3.35 5.35 8.32667e-016
vertex 0.0 43.0 0.0
endloop
endfacet
facet normal -2.22044640781523e-016 3.21077589125976e-023 -1.0
outer loop
vertex -16.75 29.65 3.63043e-015
vertex -10.1045 30.2555 2.24366e-015
vertex -3.35 29.65 8.32667e-016
endloop
endfacet
facet normal -2.22044640781523e-016 3.21077589125976e-023 -1.0
outer loop
vertex -10.1045 30.2555 2.24366e-015
vertex -16.75 29.65 3.63043e-015
vertex -10.2419 30.2797 2.27416e-015
endloop
endfacet
facet normal -2.22044640781523e-016 3.21077589125976e-023 -1.0
outer loop
vertex -10.2419 30.2797 2.27416e-015
vertex -16.75 29.65 3.63043e-015
vertex -10.3746 30.3228 2.30363e-015
endloop
endfacet
facet normal -2.22044640781523e-016 3.21077589125976e-023 -1.0
outer loop
vertex -10.3746 30.3228 2.30363e-015
vertex -16.75 29.65 3.63043e-015
vertex -10.5 30.384 2.33147e-015
endloop
endfacet
facet normal -2.22044640781523e-016 3.21077589125976e-023 -1.0
outer loop
vertex -10.5 30.384 2.33147e-015
vertex -16.75 29.65 3.63043e-015
vertex -10.6157 30.462 2.35715e-015
endloop
endfacet
facet normal -2.22044640781523e-016 3.21077589125976e-023 -1.0
outer loop
vertex -10.6157 30.462 2.35715e-015
vertex -16.75 29.65 3.63043e-015
vertex -10.7193 30.5553 2.38017e-015
endloop
endfacet
facet normal -2.22044640781523e-016 3.21077589125976e-023 -1.0
outer loop
vertex -10.7193 30.5553 2.38017e-015
vertex -16.75 29.65 3.63043e-015
vertex -10.809 30.6622 2.40008e-015
endloop
endfacet
facet normal -2.22044640781523e-016 3.21077589125976e-023 -1.0
outer loop
vertex -10.809 30.6622 2.40008e-015
vertex -16.75 29.65 3.63043e-015
vertex -10.8829 30.7805 2.4165e-015
endloop
endfacet
facet normal -2.22044640781523e-016 3.21077589125976e-023 -1.0
outer loop
vertex -10.8829 30.7805 2.4165e-015
vertex -16.75 29.65 3.63043e-015
vertex -10.9397 30.908 2.4291e-015
endloop
endfacet
facet normal -2.22044640781523e-016 3.21077589125976e-023 -1.0
outer loop
vertex -10.9397 30.908 2.4291e-015
vertex -16.75 29.65 3.63043e-015
vertex -10.9781 31.0421 2.43764e-015
endloop
endfacet
facet normal -2.22044640781523e-016 3.21077589125976e-023 -1.0
outer loop
vertex -10.9781 31.0421 2.43764e-015
vertex -16.75 29.65 3.63043e-015
vertex -10.9976 31.1802 2.44195e-015
endloop
endfacet
facet normal -2.22044640781523e-016 3.21077589125976e-023 -1.0
outer loop
vertex -10.9976 31.1802 2.44195e-015
vertex -16.75 29.65 3.63043e-015
vertex -10.9976 31.3198 2.44195e-015
endloop
endfacet
facet normal -2.22044640781523e-016 3.21077589125976e-023 -1.0
outer loop
vertex -3.35 29.65 8.32667e-016
vertex -10.1045 30.2555 2.24366e-015
vertex -9.9651 30.2506 2.2127e-015
endloop
endfacet
facet normal -2.22044640781523e-016 3.21077589125976e-023 -1.0
outer loop
vertex -3.35 29.65 8.32667e-016
vertex -9.9651 30.2506 2.2127e-015
vertex -9.82635 30.2652 2.18189e-015
endloop
endfacet
facet normal -2.22044640781523e-016 3.21077589125976e-023 -1.0
outer loop
vertex -3.35 29.65 8.32667e-016
vertex -9.82635 30.2652 2.18189e-015
vertex -9.69098 30.2989 2.15183e-015
endloop
endfacet
facet normal -2.22044640781523e-016 3.21077589125976e-023 -1.0
outer loop
vertex -3.35 29.65 8.32667e-016
vertex -9.69098 30.2989 2.15183e-015
vertex -9.56163 30.3512 2.12311e-015
endloop
endfacet
facet normal -2.22044640781523e-016 3.21077589125976e-023 -1.0
outer loop
vertex -3.35 29.65 8.32667e-016
vertex -9.56163 30.3512 2.12311e-015
vertex -9.44081 30.421 2.09628e-015
endloop
endfacet
facet normal -2.22044640781523e-016 3.21077589125976e-023 -1.0
outer loop
vertex -3.35 29.65 8.32667e-016
vertex -9.44081 30.421 2.09628e-015
vertex -9.33087 30.5069 2.07187e-015
endloop
endfacet
facet normal -2.22044640781523e-016 3.21077589125976e-023 -1.0
outer loop
vertex -3.35 29.65 8.32667e-016
vertex -9.33087 30.5069 2.07187e-015
vertex -9.23396 30.6072 2.05035e-015
endloop
endfacet
facet normal -2.22044640781523e-016 3.21077589125976e-023 -1.0
outer loop
vertex -3.35 29.65 8.32667e-016
vertex -9.23396 30.6072 2.05035e-015
vertex -9.15195 30.7201 2.03214e-015
endloop
endfacet
facet normal -2.22044640781523e-016 3.21077589125976e-023 -1.0
outer loop
vertex -3.35 29.65 8.32667e-016
vertex -9.15195 30.7201 2.03214e-015
vertex -9.08646 30.8433 2.0176e-015
endloop
endfacet
facet normal -2.22044640781523e-016 3.21077589125976e-023 -1.0
outer loop
vertex -3.35 29.65 8.32667e-016
vertex -9.08646 30.8433 2.0176e-015
vertex -9.03874 30.9744 2.007e-015
endloop
endfacet
facet normal -2.22044640781523e-016 3.21077589125976e-023 -1.0
outer loop
vertex -3.35 29.65 8.32667e-016
vertex -9.03874 30.9744 2.007e-015
vertex -9.00973 31.1108 2.00056e-015
endloop
endfacet
facet normal -2.22044640781523e-016 3.21077589125976e-023 -1.0
outer loop
vertex -3.35 29.65 8.32667e-016
vertex -9.00973 31.1108 2.00056e-015
vertex -9.0 31.25 1.9984e-015
endloop
endfacet
facet normal 0.0 -1.0 0.0
outer loop
vertex 4.44089e-016 0.0 2.0
vertex -20.0 0.0 4.44089e-015
vertex 0.0 0.0 0.0
endloop
endfacet
facet normal 0.0 -1.0 0.0
outer loop
vertex -20.0 0.0 4.44089e-015
vertex 4.44089e-016 0.0 2.0
vertex -20.0 0.0 2.0
endloop
endfacet
facet normal 1.0 -0.0 -2.220445e-016
outer loop
vertex 0.0 43.0 0.0
vertex 4.44089e-016 0.0 2.0
vertex 0.0 0.0 0.0
endloop
endfacet
facet normal 1.0 -0.0 -2.220445e-016
outer loop
vertex 4.44089e-016 0.0 2.0
vertex 0.0 43.0 0.0
vertex 4.44089e-016 43.0 2.0
endloop
endfacet
facet normal -0.0 1.0 -0.0
outer loop
vertex -20.0 43.0 4.44089e-015
vertex 4.44089e-016 43.0 2.0
vertex 0.0 43.0 0.0
endloop
endfacet
facet normal -0.0 1.0 -0.0
outer loop
vertex 4.44089e-016 43.0 2.0
vertex -20.0 43.0 4.44089e-015
vertex -20.0 43.0 2.0
endloop
endfacet
facet normal -1.0 0.0 0.0
outer loop
vertex -20.0 43.0 2.0
vertex -20.0 0.0 4.44089e-015
vertex -20.0 0.0 2.0
endloop
endfacet
facet normal -1.0 0.0 0.0
outer loop
vertex -20.0 0.0 4.44089e-015
vertex -20.0 43.0 2.0
vertex -20.0 43.0 4.44089e-015
endloop
endfacet
facet normal 0.173597243567951 0.984816732710005 2.60808555306218e-032
outer loop
vertex -10.2419 2.7797 2.27416e-015
vertex -10.1045 2.75548 2.0
vertex -10.1045 2.75548 2.24366e-015
endloop
endfacet
facet normal 0.173597243567951 0.984816732710005 2.60808555306218e-032
outer loop
vertex -10.1045 2.75548 2.0
vertex -10.2419 2.7797 2.27416e-015
vertex -10.2419 2.7797 2.0
endloop
endfacet
facet normal 0.0349141379992865 0.999390315626366 -1.55221926248707e-032
outer loop
vertex -10.1045 2.75548 2.24366e-015
vertex -9.9651 2.75061 2.0
vertex -9.9651 2.75061 2.2127e-015
endloop
endfacet
facet normal 0.0349141379992865 0.999390315626366 -1.55221926248707e-032
outer loop
vertex -9.9651 2.75061 2.0
vertex -10.1045 2.75548 2.24366e-015
vertex -10.1045 2.75548 2.0
endloop
endfacet
facet normal 0.309037455199741 0.951049867926844 -5.31703076147942e-032
outer loop
vertex -10.3746 2.82282 2.30363e-015
vertex -10.2419 2.7797 2.0
vertex -10.2419 2.7797 2.27416e-015
endloop
endfacet
facet normal 0.309037455199741 0.951049867926844 -5.31703076147942e-032
outer loop
vertex -10.2419 2.7797 2.0
vertex -10.3746 2.82282 2.30363e-015
vertex -10.3746 2.82282 2.0
endloop
endfacet
facet normal 0.438303592731399 0.898826991472079 -4.11906101476086e-032
outer loop
vertex -10.5 2.88397 2.33147e-015
vertex -10.3746 2.82282 2.0
vertex -10.3746 2.82282 2.30363e-015
endloop
endfacet
facet normal 0.438303592731399 0.898826991472079 -4.11906101476086e-032
outer loop
vertex -10.3746 2.82282 2.0
vertex -10.5 2.88397 2.33147e-015
vertex -10.5 2.88397 2.0
endloop
endfacet
facet normal 0.559091265494812 0.82910611917137 -0.0
outer loop
vertex -10.6157 2.96199 2.35715e-015
vertex -10.5 2.88397 2.0
vertex -10.5 2.88397 2.33147e-015
endloop
endfacet
facet normal 0.559091265494812 0.82910611917137 -0.0
outer loop
vertex -10.5 2.88397 2.0
vertex -10.6157 2.96199 2.35715e-015
vertex -10.6157 2.96199 2.0
endloop
endfacet
facet normal 0.66940041517658 0.742901799810326 -1.60665728870704e-019
outer loop
vertex -10.7193 3.05534 2.38017e-015
vertex -10.6157 2.96199 2.0
vertex -10.6157 2.96199 2.35715e-015
endloop
endfacet
facet normal 0.66940041517658 0.742901799810326 -1.60665728870704e-019
outer loop
vertex -10.6157 2.96199 2.0
vertex -10.7193 3.05534 2.38017e-015
vertex -10.7193 3.05534 2.0
endloop
endfacet
facet normal 0.765954716419994 0.642894526648008 -0.0
outer loop
vertex -10.809 3.16221 2.40008e-015
vertex -10.7193 3.05534 2.0
vertex -10.7193 3.05534 2.38017e-015
endloop
endfacet
facet normal 0.765954716419994 0.642894526648008 -0.0
outer loop
vertex -10.7193 3.05534 2.0
vertex -10.809 3.16221 2.40008e-015
vertex -10.809 3.16221 2.0
endloop
endfacet
facet normal 0.848159351387816 0.52974117704158 -1.15795440788397e-018
outer loop
vertex -10.8829 3.28053 2.4165e-015
vertex -10.809 3.16221 2.0
vertex -10.809 3.16221 2.40008e-015
endloop
endfacet
facet normal 0.848159351387816 0.52974117704158 -1.15795440788397e-018
outer loop
vertex -10.809 3.16221 2.0
vertex -10.8829 3.28053 2.4165e-015
vertex -10.8829 3.28053 2.0
endloop
endfacet
facet normal 0.913397326163802 0.407069188906279 -0.0
outer loop
vertex -10.9397 3.40798 2.4291e-015
vertex -10.8829 3.28053 2.0
vertex -10.8829 3.28053 2.4165e-015
endloop
endfacet
facet normal 0.913397326163802 0.407069188906279 -0.0
outer loop
vertex -10.8829 3.28053 2.0
vertex -10.9397 3.40798 2.4291e-015
vertex -10.9397 3.40798 2.0
endloop
endfacet
facet normal 0.961366895466203 0.27527021688093 -6.01709617471326e-019
outer loop
vertex -10.9781 3.54209 2.43764e-015
vertex -10.9397 3.40798 2.0
vertex -10.9397 3.40798 2.4291e-015
endloop
endfacet
facet normal 0.961366895466203 0.27527021688093 -6.01709617471326e-019
outer loop
vertex -10.9397 3.40798 2.0
vertex -10.9781 3.54209 2.43764e-015
vertex -10.9781 3.54209 2.0
endloop
endfacet
facet normal 0.990184635289717 0.139765475122325 -2.46067409745051e-031
outer loop
vertex -10.9976 3.68024 2.44195e-015
vertex -10.9781 3.54209 2.0
vertex -10.9781 3.54209 2.43764e-015
endloop
endfacet
facet normal 0.990184635289717 0.139765475122325 -2.46067409745051e-031
outer loop
vertex -10.9781 3.54209 2.0
vertex -10.9976 3.68024 2.44195e-015
vertex -10.9976 3.68024 2.0
endloop
endfacet
facet normal 1.0 -0.0 -0.0
outer loop
vertex -10.9976 3.81976 2.44195e-015
vertex -10.9976 3.68024 2.0
vertex -10.9976 3.68024 2.44195e-015
endloop
endfacet
facet normal 1.0 -0.0 -0.0
outer loop
vertex -10.9976 3.68024 2.0
vertex -10.9976 3.81976 2.44195e-015
vertex -10.9976 3.81976 2.0
endloop
endfacet
facet normal 0.990184635289717 -0.139765475122325 -0.0
outer loop
vertex -10.9781 3.95791 2.43764e-015
vertex -10.9976 3.81976 2.0
vertex -10.9976 3.81976 2.44195e-015
endloop
endfacet
facet normal 0.990184635289717 -0.139765475122325 -0.0
outer loop
vertex -10.9976 3.81976 2.0
vertex -10.9781 3.95791 2.43764e-015
vertex -10.9781 3.95791 2.0
endloop
endfacet
facet normal 0.961366895466203 -0.275270216880931 -1.19453005707766e-031
outer loop
vertex -10.9397 4.09202 2.4291e-015
vertex -10.9781 3.95791 2.0
vertex -10.9781 3.95791 2.43764e-015
endloop
endfacet
facet normal 0.961366895466203 -0.275270216880931 -1.19453005707766e-031
outer loop
vertex -10.9781 3.95791 2.0
vertex -10.9397 4.09202 2.4291e-015
vertex -10.9397 4.09202 2.0
endloop
endfacet
facet normal 0.913397326163804 -0.407069188906276 -0.0
outer loop
vertex -10.8829 4.21947 2.4165e-015
vertex -10.9397 4.09202 2.0
vertex -10.9397 4.09202 2.4291e-015
endloop
endfacet
facet normal 0.913397326163804 -0.407069188906276 -0.0
outer loop
vertex -10.9397 4.09202 2.0
vertex -10.8829 4.21947 2.4165e-015
vertex -10.8829 4.21947 2.0
endloop
endfacet
facet normal 0.848139233315438 -0.529773386374874 -0.0
outer loop
vertex -10.809 4.33778 2.40008e-015
vertex -10.8829 4.21947 2.0
vertex -10.8829 4.21947 2.4165e-015
endloop
endfacet
facet normal 0.848139233315438 -0.529773386374874 -0.0
outer loop
vertex -10.8829 4.21947 2.0
vertex -10.809 4.33778 2.40008e-015
vertex -10.809 4.33778 2.0
endloop
endfacet
facet normal 0.765984336824178 -0.642859234778519 -0.0
outer loop
vertex -10.7193 4.44466 2.38017e-015
vertex -10.809 4.33778 2.0
vertex -10.809 4.33778 2.40008e-015
endloop
endfacet
facet normal 0.765984336824178 -0.642859234778519 -0.0
outer loop
vertex -10.809 4.33778 2.0
vertex -10.7193 4.44466 2.38017e-015
vertex -10.7193 4.44466 2.0
endloop
endfacet
facet normal 0.669400415176582 -0.742901799810325 -1.60665728870751e-019
outer loop
vertex -10.6157 4.53801 2.0
vertex -10.7193 4.44466 2.38017e-015
vertex -10.6157 4.53801 2.35715e-015
endloop
endfacet
facet normal 0.669400415176582 -0.742901799810325 -1.60665728870751e-019
outer loop
vertex -10.7193 4.44466 2.38017e-015
vertex -10.6157 4.53801 2.0
vertex -10.7193 4.44466 2.0
endloop
endfacet
facet normal 0.559042002240032 -0.829139336741091 0.0
outer loop
vertex -10.5 4.61602 2.0
vertex -10.6157 4.53801 2.35715e-015
vertex -10.5 4.61602 2.33147e-015
endloop
endfacet
facet normal 0.559042002240032 -0.829139336741091 0.0
outer loop
vertex -10.6157 4.53801 2.35715e-015
vertex -10.5 4.61602 2.0
vertex -10.6157 4.53801 2.0
endloop
endfacet
facet normal 0.438361496964508 -0.898798752768959 2.72339304826869e-032
outer loop
vertex -10.3746 4.67718 2.0
vertex -10.5 4.61602 2.33147e-015
vertex -10.3746 4.67718 2.30363e-015
endloop
endfacet
facet normal 0.438361496964508 -0.898798752768959 2.72339304826869e-032
outer loop
vertex -10.5 4.61602 2.33147e-015
vertex -10.3746 4.67718 2.0
vertex -10.5 4.61602 2.0
endloop
endfacet
facet normal 0.309037455199744 -0.951049867926844 0.0
outer loop
vertex -10.2419 4.7203 2.0
vertex -10.3746 4.67718 2.30363e-015
vertex -10.2419 4.7203 2.27416e-015
endloop
endfacet
facet normal 0.309037455199744 -0.951049867926844 0.0
outer loop
vertex -10.3746 4.67718 2.30363e-015
vertex -10.2419 4.7203 2.0
vertex -10.3746 4.67718 2.0
endloop
endfacet
facet normal 0.173597243567948 -0.984816732710005 4.13766961909743e-032
outer loop
vertex -10.1045 4.74452 2.0
vertex -10.2419 4.7203 2.27416e-015
vertex -10.1045 4.74452 2.24366e-015
endloop
endfacet
facet normal 0.173597243567948 -0.984816732710005 4.13766961909743e-032
outer loop
vertex -10.2419 4.7203 2.27416e-015
vertex -10.1045 4.74452 2.0
vertex -10.2419 4.7203 2.0
endloop
endfacet
facet normal 0.034914137999289 -0.999390315626366 0.0
outer loop
vertex -9.9651 4.74939 2.0
vertex -10.1045 4.74452 2.24366e-015
vertex -9.9651 4.74939 2.2127e-015
endloop
endfacet
facet normal 0.034914137999289 -0.999390315626366 0.0
outer loop
vertex -10.1045 4.74452 2.24366e-015
vertex -9.9651 4.74939 2.0
vertex -10.1045 4.74452 2.0
endloop
endfacet
facet normal -0.104505687443227 -0.994524288940204 4.33020927691843e-020
outer loop
vertex -9.82635 4.73481 2.0
vertex -9.9651 4.74939 2.2127e-015
vertex -9.82635 4.73481 2.18189e-015
endloop
endfacet
facet normal -0.104505687443227 -0.994524288940204 4.33020927691843e-020
outer loop
vertex -9.9651 4.74939 2.2127e-015
vertex -9.82635 4.73481 2.0
vertex -9.9651 4.74939 2.0
endloop
endfacet
facet normal -0.241911558990528 -0.970298303423629 0.0
outer loop
vertex -9.69098 4.70106 2.0
vertex -9.82635 4.73481 2.18189e-015
vertex -9.69098 4.70106 2.15183e-015
endloop
endfacet
facet normal -0.241911558990528 -0.970298303423629 0.0
outer loop
vertex -9.82635 4.73481 2.18189e-015
vertex -9.69098 4.70106 2.0
vertex -9.82635 4.73481 2.0
endloop
endfacet
facet normal -0.374663330321618 -0.927160929349546 0.0
outer loop
vertex -9.56163 4.64879 2.0
vertex -9.69098 4.70106 2.15183e-015
vertex -9.56163 4.64879 2.12311e-015
endloop
endfacet
facet normal -0.374663330321618 -0.927160929349546 0.0
outer loop
vertex -9.69098 4.70106 2.15183e-015
vertex -9.56163 4.64879 2.0
vertex -9.69098 4.70106 2.0
endloop
endfacet
facet normal -0.49997064915905 -0.866042348837213 0.0
outer loop
vertex -9.44081 4.57904 2.0
vertex -9.56163 4.64879 2.12311e-015
vertex -9.44081 4.57904 2.09628e-015
endloop
endfacet
facet normal -0.49997064915905 -0.866042348837213 0.0
outer loop
vertex -9.56163 4.64879 2.12311e-015
vertex -9.44081 4.57904 2.0
vertex -9.56163 4.64879 2.0
endloop
endfacet
facet normal -0.615685768048359 -0.787991773448621 0.0
outer loop
vertex -9.33087 4.49314 2.0
vertex -9.44081 4.57904 2.09628e-015
vertex -9.33087 4.49314 2.07187e-015
endloop
endfacet
facet normal -0.615685768048359 -0.787991773448621 0.0
outer loop
vertex -9.44081 4.57904 2.09628e-015
vertex -9.33087 4.49314 2.0
vertex -9.44081 4.57904 2.0
endloop
endfacet
facet normal -0.719328583663171 -0.694669985478814 0.0
outer loop
vertex -9.33087 4.49314 2.0
vertex -9.23396 4.39279 2.05035e-015
vertex -9.23396 4.39279 2.0
endloop
endfacet
facet normal -0.719328583663171 -0.694669985478814 0.0
outer loop
vertex -9.23396 4.39279 2.05035e-015
vertex -9.33087 4.49314 2.0
vertex -9.33087 4.49314 2.07187e-015
endloop
endfacet
facet normal -0.808999458442891 -0.587809387675213 0.0
outer loop
vertex -9.23396 4.39279 2.0
vertex -9.15195 4.27992 2.03214e-015
vertex -9.15195 4.27992 2.0
endloop
endfacet
facet normal -0.808999458442891 -0.587809387675213 0.0
outer loop
vertex -9.15195 4.27992 2.03214e-015
vertex -9.23396 4.39279 2.0
vertex -9.23396 4.39279 2.05035e-015
endloop
endfacet
facet normal -0.882965324377179 -0.469438213130869 6.11076783179585e-020
outer loop
vertex -9.15195 4.27992 2.0
vertex -9.08646 4.15674 2.0176e-015
vertex -9.08646 4.15674 2.0
endloop
endfacet
facet normal -0.882965324377179 -0.469438213130869 6.11076783179585e-020
outer loop
vertex -9.08646 4.15674 2.0176e-015
vertex -9.15195 4.27992 2.0
vertex -9.15195 4.27992 2.03214e-015
endloop
endfacet
facet normal -0.939684552471952 -0.342042310022586 5.83794515596974e-032
outer loop
vertex -9.08646 4.15674 2.0
vertex -9.03874 4.02564 2.007e-015
vertex -9.03874 4.02564 2.0
endloop
endfacet
facet normal -0.939684552471952 -0.342042310022586 5.83794515596974e-032
outer loop
vertex -9.03874 4.02564 2.007e-015
vertex -9.08646 4.15674 2.0
vertex -9.08646 4.15674 2.0176e-015
endloop
endfacet
facet normal -0.978144093481412 -0.207928190458695 -6.07688139318504e-032
outer loop
vertex -9.03874 4.02564 2.0
vertex -9.00973 3.88917 2.00056e-015
vertex -9.00973 3.88917 2.0
endloop
endfacet
facet normal -0.978144093481412 -0.207928190458695 -6.07688139318504e-032
outer loop
vertex -9.00973 3.88917 2.00056e-015
vertex -9.03874 4.02564 2.0
vertex -9.03874 4.02564 2.007e-015
endloop
endfacet
facet normal -0.997564905325624 -0.0697442446563014 -1.52453045042273e-019
outer loop
vertex -9.00973 3.88917 2.0
vertex -9.0 3.75 1.9984e-015
vertex -9.0 3.75 2.0
endloop
endfacet
facet normal -0.997564905325624 -0.0697442446563014 -1.52453045042273e-019
outer loop
vertex -9.0 3.75 1.9984e-015
vertex -9.00973 3.88917 2.0
vertex -9.00973 3.88917 2.00056e-015
endloop
endfacet
facet normal -0.997564905325624 0.0697442446563017 -6.19753638760063e-032
outer loop
vertex -9.0 3.75 2.0
vertex -9.00973 3.61083 2.00056e-015
vertex -9.00973 3.61083 2.0
endloop
endfacet
facet normal -0.997564905325624 0.0697442446563017 -6.19753638760063e-032
outer loop
vertex -9.00973 3.61083 2.00056e-015
vertex -9.0 3.75 2.0
vertex -9.0 3.75 1.9984e-015
endloop
endfacet
facet normal -0.978144093481412 0.207928190458695 6.07688139318504e-032
outer loop
vertex -9.00973 3.61083 2.0
vertex -9.03874 3.47436 2.007e-015
vertex -9.03874 3.47436 2.0
endloop
endfacet
facet normal -0.978144093481412 0.207928190458695 6.07688139318504e-032
outer loop
vertex -9.03874 3.47436 2.007e-015
vertex -9.00973 3.61083 2.0
vertex -9.00973 3.61083 2.00056e-015
endloop
endfacet
facet normal -0.939684552471952 0.342042310022586 -5.83794515596974e-032
outer loop
vertex -9.03874 3.47436 2.0
vertex -9.08646 3.34326 2.0176e-015
vertex -9.08646 3.34326 2.0
endloop
endfacet
facet normal -0.939684552471952 0.342042310022586 -5.83794515596974e-032
outer loop
vertex -9.08646 3.34326 2.0176e-015
vertex -9.03874 3.47436 2.0
vertex -9.03874 3.47436 2.007e-015
endloop
endfacet
facet normal -0.88296532437718 0.469438213130867 6.11076783179598e-020
outer loop
vertex -9.08646 3.34326 2.0
vertex -9.15195 3.22008 2.03214e-015
vertex -9.15195 3.22008 2.0
endloop
endfacet
facet normal -0.88296532437718 0.469438213130867 6.11076783179598e-020
outer loop
vertex -9.15195 3.22008 2.03214e-015
vertex -9.08646 3.34326 2.0
vertex -9.08646 3.34326 2.0176e-015
endloop
endfacet
facet normal -0.80899945844289 0.587809387675215 0.0
outer loop
vertex -9.15195 3.22008 2.0
vertex -9.23396 3.10721 2.05035e-015
vertex -9.23396 3.10721 2.0
endloop
endfacet
facet normal -0.80899945844289 0.587809387675215 0.0
outer loop
vertex -9.23396 3.10721 2.05035e-015
vertex -9.15195 3.22008 2.0
vertex -9.15195 3.22008 2.03214e-015
endloop
endfacet
facet normal -0.719363172297976 0.694634167271804 0.0
outer loop
vertex -9.23396 3.10721 2.0
vertex -9.33087 3.00685 2.07187e-015
vertex -9.33087 3.00685 2.0
endloop
endfacet
facet normal -0.719363172297976 0.694634167271804 0.0
outer loop
vertex -9.33087 3.00685 2.07187e-015
vertex -9.23396 3.10721 2.0
vertex -9.23396 3.10721 2.05035e-015
endloop
endfacet
facet normal -0.61564126004978 0.788026547093637 -0.0
outer loop
vertex -9.44081 2.92096 2.09628e-015
vertex -9.33087 3.00685 2.0
vertex -9.33087 3.00685 2.07187e-015
endloop
endfacet
facet normal -0.61564126004978 0.788026547093637 -0.0
outer loop
vertex -9.33087 3.00685 2.0
vertex -9.44081 2.92096 2.09628e-015
vertex -9.44081 2.92096 2.0
endloop
endfacet
facet normal -0.49997064915905 0.866042348837213 -0.0
outer loop
vertex -9.56163 2.85121 2.12311e-015
vertex -9.44081 2.92096 2.0
vertex -9.44081 2.92096 2.09628e-015
endloop
endfacet
facet normal -0.49997064915905 0.866042348837213 -0.0
outer loop
vertex -9.44081 2.92096 2.0
vertex -9.56163 2.85121 2.12311e-015
vertex -9.56163 2.85121 2.0
endloop
endfacet
facet normal -0.374663330321616 0.927160929349547 -0.0
outer loop
vertex -9.69098 2.79894 2.15183e-015
vertex -9.56163 2.85121 2.0
vertex -9.56163 2.85121 2.12311e-015
endloop
endfacet
facet normal -0.374663330321616 0.927160929349547 -0.0
outer loop
vertex -9.56163 2.85121 2.0
vertex -9.69098 2.79894 2.15183e-015
vertex -9.69098 2.79894 2.0
endloop
endfacet
facet normal -0.241911558990523 0.97029830342363 -0.0
outer loop
vertex -9.82635 2.76519 2.18189e-015
vertex -9.69098 2.79894 2.0
vertex -9.69098 2.79894 2.15183e-015
endloop
endfacet
facet normal -0.241911558990523 0.97029830342363 -0.0
outer loop
vertex -9.69098 2.79894 2.0
vertex -9.82635 2.76519 2.18189e-015
vertex -9.82635 2.76519 2.0
endloop
endfacet
facet normal -0.104505687443232 0.994524288940204 4.33020927691887e-020
outer loop
vertex -9.9651 2.75061 2.2127e-015
vertex -9.82635 2.76519 2.0
vertex -9.82635 2.76519 2.18189e-015
endloop
endfacet
facet normal -0.104505687443232 0.994524288940204 4.33020927691887e-020
outer loop
vertex -9.82635 2.76519 2.0
vertex -9.9651 2.75061 2.2127e-015
vertex -9.9651 2.75061 2.0
endloop
endfacet
facet normal 1.0 0.0 0.0
outer loop
vertex -16.75 29.65 3.63043e-015
vertex -16.75 5.35 2.0
vertex -16.75 5.35 3.63043e-015
endloop
endfacet
facet normal 1.0 0.0 0.0
outer loop
vertex -16.75 5.35 2.0
vertex -16.75 29.65 3.63043e-015
vertex -16.75 29.65 2.0
endloop
endfacet
facet normal 0.0 1.0 0.0
outer loop
vertex -16.75 5.35 3.63043e-015
vertex -3.35 5.35 2.0
vertex -3.35 5.35 8.32667e-016
endloop
endfacet
facet normal 0.0 1.0 0.0
outer loop
vertex -3.35 5.35 2.0
vertex -16.75 5.35 3.63043e-015
vertex -16.75 5.35 2.0
endloop
endfacet
facet normal 0.0 -1.0 0.0
outer loop
vertex -3.35 29.65 2.0
vertex -16.75 29.65 3.63043e-015
vertex -3.35 29.65 8.32667e-016
endloop
endfacet
facet normal 0.0 -1.0 0.0
outer loop
vertex -16.75 29.65 3.63043e-015
vertex -3.35 29.65 2.0
vertex -16.75 29.65 2.0
endloop
endfacet
facet normal -1.0 0.0 0.0
outer loop
vertex -3.35 29.65 2.0
vertex -3.35 5.35 8.32667e-016
vertex -3.35 5.35 2.0
endloop
endfacet
facet normal -1.0 0.0 0.0
outer loop
vertex -3.35 5.35 8.32667e-016
vertex -3.35 29.65 2.0
vertex -3.35 29.65 8.32667e-016
endloop
endfacet
facet normal 0.173458208060287 0.984841230887758 1.07763770602047e-032
outer loop
vertex -10.2419 30.2797 2.27416e-015
vertex -10.1045 30.2555 2.0
vertex -10.1045 30.2555 2.24366e-015
endloop
endfacet
facet normal 0.173458208060287 0.984841230887758 1.07763770602047e-032
outer loop
vertex -10.1045 30.2555 2.0
vertex -10.2419 30.2797 2.27416e-015
vertex -10.2419 30.2797 2.0
endloop
endfacet
facet normal 0.0351289502221881 0.999382787952788 6.82668109106044e-020
outer loop
vertex -10.1045 30.2555 2.24366e-015
vertex -9.9651 30.2506 2.0
vertex -9.9651 30.2506 2.2127e-015
endloop
endfacet
facet normal 0.0351289502221881 0.999382787952788 6.82668109106044e-020
outer loop
vertex -9.9651 30.2506 2.0
vertex -10.1045 30.2555 2.24366e-015
vertex -10.1045 30.2555 2.0
endloop
endfacet
facet normal 0.308907797654445 0.951091989530077 -3.83828121088938e-032
outer loop
vertex -10.3746 30.3228 2.30363e-015
vertex -10.2419 30.2797 2.0
vertex -10.2419 30.2797 2.27416e-015
endloop
endfacet
facet normal 0.308907797654445 0.951091989530077 -3.83828121088938e-032
outer loop
vertex -10.2419 30.2797 2.0
vertex -10.3746 30.3228 2.30363e-015
vertex -10.3746 30.3228 2.0
endloop
endfacet
facet normal 0.438593059319761 0.898685778410081 -2.72483166756556e-032
outer loop
vertex -10.5 30.384 2.33147e-015
vertex -10.3746 30.3228 2.0
vertex -10.3746 30.3228 2.30363e-015
endloop
endfacet
facet normal 0.438593059319761 0.898685778410081 -2.72483166756556e-032
outer loop
vertex -10.3746 30.3228 2.0
vertex -10.5 30.384 2.33147e-015
vertex -10.5 30.384 2.0
endloop
endfacet
facet normal 0.558992733064061 0.829172554045038 -0.0
outer loop
vertex -10.6157 30.462 2.35715e-015
vertex -10.5 30.384 2.0
vertex -10.5 30.384 2.33147e-015
endloop
endfacet
facet normal 0.558992733064061 0.829172554045038 -0.0
outer loop
vertex -10.5 30.384 2.0
vertex -10.6157 30.462 2.35715e-015
vertex -10.6157 30.462 2.0
endloop
endfacet
facet normal 0.669202462745914 0.743080119404902 -1.61488217038397e-019
outer loop
vertex -10.7193 30.5553 2.38017e-015
vertex -10.6157 30.462 2.0
vertex -10.6157 30.462 2.35715e-015
endloop
endfacet
facet normal 0.669202462745914 0.743080119404902 -1.61488217038397e-019
outer loop
vertex -10.6157 30.462 2.0
vertex -10.7193 30.5553 2.38017e-015
vertex -10.7193 30.5553 2.0
endloop
endfacet
facet normal 0.766043563000178 0.642788658569822 -0.0
outer loop
vertex -10.809 30.6622 2.40008e-015
vertex -10.7193 30.5553 2.0
vertex -10.7193 30.5553 2.38017e-015
endloop
endfacet
facet normal 0.766043563000178 0.642788658569822 -0.0
outer loop
vertex -10.7193 30.5553 2.0
vertex -10.809 30.6622 2.40008e-015
vertex -10.809 30.6622 2.0
endloop
endfacet
facet normal 0.84811911157311 0.529805598860977 -0.0
outer loop
vertex -10.8829 30.7805 2.4165e-015
vertex -10.809 30.6622 2.0
vertex -10.809 30.6622 2.40008e-015
endloop
endfacet
facet normal 0.84811911157311 0.529805598860977 -0.0
outer loop
vertex -10.809 30.6622 2.0
vertex -10.8829 30.7805 2.4165e-015
vertex -10.8829 30.7805 2.0
endloop
endfacet
facet normal 0.913456675133179 0.406935993314228 -2.0225255419675e-031
outer loop
vertex -10.9397 30.908 2.4291e-015
vertex -10.8829 30.7805 2.0
vertex -10.8829 30.7805 2.4165e-015
endloop
endfacet
facet normal 0.913456675133179 0.406935993314228 -2.0225255419675e-031
outer loop
vertex -10.8829 30.7805 2.0
vertex -10.9397 30.908 2.4291e-015
vertex -10.9397 30.908 2.0
endloop
endfacet
facet normal 0.961361463071127 0.275289188530429 1.73700257191474e-032
outer loop
vertex -10.9781 31.0421 2.43764e-015
vertex -10.9397 30.908 2.0
vertex -10.9397 30.908 2.4291e-015
endloop
endfacet
facet normal 0.961361463071127 0.275289188530429 1.73700257191474e-032
outer loop
vertex -10.9397 30.908 2.0
vertex -10.9781 31.0421 2.43764e-015
vertex -10.9781 31.0421 2.0
endloop
endfacet
facet normal 0.990177630964161 0.139815089093421 -1.76575726359056e-031
outer loop
vertex -10.9976 31.1802 2.44195e-015
vertex -10.9781 31.0421 2.0
vertex -10.9781 31.0421 2.43764e-015
endloop
endfacet
facet normal 0.990177630964161 0.139815089093421 -1.76575726359056e-031
outer loop
vertex -10.9781 31.0421 2.0
vertex -10.9976 31.1802 2.44195e-015
vertex -10.9976 31.1802 2.0
endloop
endfacet
facet normal 1.0 -0.0 -0.0
outer loop
vertex -10.9976 31.3198 2.44195e-015
vertex -10.9976 31.1802 2.0
vertex -10.9976 31.1802 2.44195e-015
endloop
endfacet
facet normal 1.0 -0.0 -0.0
outer loop
vertex -10.9976 31.1802 2.0
vertex -10.9976 31.3198 2.44195e-015
vertex -10.9976 31.3198 2.0
endloop
endfacet
facet normal 0.990177630964161 -0.139815089093421 6.94899427649179e-032
outer loop
vertex -10.9781 31.4579 2.43764e-015
vertex -10.9976 31.3198 2.0
vertex -10.9976 31.3198 2.44195e-015
endloop
endfacet
facet normal 0.990177630964161 -0.139815089093421 6.94899427649179e-032
outer loop
vertex -10.9976 31.3198 2.0
vertex -10.9781 31.4579 2.43764e-015
vertex -10.9781 31.4579 2.0
endloop
endfacet
facet normal 0.961361463071127 -0.275289188530429 1.73700257191474e-032
outer loop
vertex -10.9397 31.592 2.4291e-015
vertex -10.9781 31.4579 2.0
vertex -10.9781 31.4579 2.43764e-015
endloop
endfacet
facet normal 0.961361463071127 -0.275289188530429 1.73700257191474e-032
outer loop
vertex -10.9781 31.4579 2.0
vertex -10.9397 31.592 2.4291e-015
vertex -10.9397 31.592 2.0
endloop
endfacet
facet normal 0.913456675133173 -0.406935993314243 -0.0
outer loop
vertex -10.8829 31.7195 2.4165e-015
vertex -10.9397 31.592 2.0
vertex -10.9397 31.592 2.4291e-015
endloop
endfacet
facet normal 0.913456675133173 -0.406935993314243 -0.0
outer loop
vertex -10.9397 31.592 2.0
vertex -10.8829 31.7195 2.4165e-015
vertex -10.8829 31.7195 2.0
endloop
endfacet
facet normal 0.848119111573122 -0.529805598860958 2.63320368209909e-031
outer loop
vertex -10.809 31.8378 2.40008e-015
vertex -10.8829 31.7195 2.0
vertex -10.8829 31.7195 2.4165e-015
endloop
endfacet
facet normal 0.848119111573122 -0.529805598860958 2.63320368209909e-031
outer loop
vertex -10.8829 31.7195 2.0
vertex -10.809 31.8378 2.40008e-015
vertex -10.809 31.8378 2.0
endloop
endfacet
facet normal 0.766043563000162 -0.642788658569842 -3.19474438585888e-031
outer loop
vertex -10.7193 31.9447 2.38017e-015
vertex -10.809 31.8378 2.0
vertex -10.809 31.8378 2.40008e-015
endloop
endfacet
facet normal 0.766043563000162 -0.642788658569842 -3.19474438585888e-031
outer loop
vertex -10.809 31.8378 2.0
vertex -10.7193 31.9447 2.38017e-015
vertex -10.7193 31.9447 2.0
endloop
endfacet
facet normal 0.669202462745914 -0.743080119404902 -1.6148821703895e-019
outer loop
vertex -10.6157 32.038 2.0
vertex -10.7193 31.9447 2.38017e-015
vertex -10.6157 32.038 2.35715e-015
endloop
endfacet
facet normal 0.669202462745914 -0.743080119404902 -1.6148821703895e-019
outer loop
vertex -10.7193 31.9447 2.38017e-015
vertex -10.6157 32.038 2.0
vertex -10.7193 31.9447 2.0
endloop
endfacet
facet normal 0.558992733064061 -0.829172554045038 0.0
outer loop
vertex -10.5 32.116 2.0
vertex -10.6157 32.038 2.35715e-015
vertex -10.5 32.116 2.33147e-015
endloop
endfacet
facet normal 0.558992733064061 -0.829172554045038 0.0
outer loop
vertex -10.6157 32.038 2.35715e-015
vertex -10.5 32.116 2.0
vertex -10.6157 32.038 2.0
endloop
endfacet
facet normal 0.438593059319761 -0.898685778410081 2.72483166756556e-032
outer loop
vertex -10.3746 32.1772 2.0
vertex -10.5 32.116 2.33147e-015
vertex -10.3746 32.1772 2.30363e-015
endloop
endfacet
facet normal 0.438593059319761 -0.898685778410081 2.72483166756556e-032
outer loop
vertex -10.5 32.116 2.33147e-015
vertex -10.3746 32.1772 2.0
vertex -10.5 32.116 2.0
endloop
endfacet
facet normal 0.308907797654481 -0.951091989530065 -1.03948985779263e-018
outer loop
vertex -10.2419 32.2203 2.0
vertex -10.3746 32.1772 2.30363e-015
vertex -10.2419 32.2203 2.27416e-015
endloop
endfacet
facet normal 0.308907797654481 -0.951091989530065 -1.03948985779263e-018
outer loop
vertex -10.3746 32.1772 2.30363e-015
vertex -10.2419 32.2203 2.0
vertex -10.3746 32.1772 2.0
endloop
endfacet
facet normal 0.173458208060287 -0.984841230887758 1.07763770602047e-032
outer loop
vertex -10.1045 32.2445 2.0
vertex -10.2419 32.2203 2.27416e-015
vertex -10.1045 32.2445 2.24366e-015
endloop
endfacet
facet normal 0.173458208060287 -0.984841230887758 1.07763770602047e-032
outer loop
vertex -10.2419 32.2203 2.27416e-015
vertex -10.1045 32.2445 2.0
vertex -10.2419 32.2203 2.0
endloop
endfacet
facet normal 0.0351289502221478 -0.999382787952789 0.0
outer loop
vertex -9.9651 32.2494 2.0
vertex -10.1045 32.2445 2.24366e-015
vertex -9.9651 32.2494 2.2127e-015
endloop
endfacet
facet normal 0.0351289502221478 -0.999382787952789 0.0
outer loop
vertex -10.1045 32.2445 2.24366e-015
vertex -9.9651 32.2494 2.0
vertex -10.1045 32.2445 2.0
endloop
endfacet
facet normal -0.104647473466764 -0.994509379692833 4.29880907872335e-020
outer loop
vertex -9.82635 32.2348 2.0
vertex -9.9651 32.2494 2.2127e-015
vertex -9.82635 32.2348 2.18189e-015
endloop
endfacet
facet normal -0.104647473466764 -0.994509379692833 4.29880907872335e-020
outer loop
vertex -9.9651 32.2494 2.2127e-015
vertex -9.82635 32.2348 2.0
vertex -9.9651 32.2494 2.0
endloop
endfacet
facet normal -0.241574100898447 -0.970382375033217 0.0
outer loop
vertex -9.69098 32.2011 2.0
vertex -9.82635 32.2348 2.18189e-015
vertex -9.69098 32.2011 2.15183e-015
endloop
endfacet
facet normal -0.241574100898447 -0.970382375033217 0.0
outer loop
vertex -9.82635 32.2348 2.18189e-015
vertex -9.69098 32.2011 2.0
vertex -9.82635 32.2348 2.0
endloop
endfacet
facet normal -0.374848158293432 -0.927086219412209 0.0
outer loop
vertex -9.56163 32.1488 2.0
vertex -9.69098 32.2011 2.15183e-015
vertex -9.56163 32.1488 2.12311e-015
endloop
endfacet
facet normal -0.374848158293432 -0.927086219412209 0.0
outer loop
vertex -9.69098 32.2011 2.15183e-015
vertex -9.56163 32.1488 2.0
vertex -9.69098 32.2011 2.0
endloop
endfacet
facet normal -0.500239388853954 -0.865887148443157 0.0
outer loop
vertex -9.44081 32.079 2.0
vertex -9.56163 32.1488 2.12311e-015
vertex -9.44081 32.079 2.09628e-015
endloop
endfacet
facet normal -0.500239388853954 -0.865887148443157 0.0
outer loop
vertex -9.56163 32.1488 2.12311e-015
vertex -9.44081 32.079 2.0
vertex -9.56163 32.1488 2.0
endloop
endfacet
facet normal -0.615685768048371 -0.787991773448611 0.0
outer loop
vertex -9.33087 31.9931 2.0
vertex -9.44081 32.079 2.09628e-015
vertex -9.33087 31.9931 2.07187e-015
endloop
endfacet
facet normal -0.615685768048371 -0.787991773448611 0.0
outer loop
vertex -9.44081 32.079 2.09628e-015
vertex -9.33087 31.9931 2.0
vertex -9.44081 32.079 2.0
endloop
endfacet
facet normal -0.71915556020895 -0.694849106080271 0.0
outer loop
vertex -9.33087 31.9931 2.0
vertex -9.23396 31.8928 2.05035e-015
vertex -9.23396 31.8928 2.0
endloop
endfacet
facet normal -0.71915556020895 -0.694849106080271 0.0
outer loop
vertex -9.23396 31.8928 2.05035e-015
vertex -9.33087 31.9931 2.0
vertex -9.33087 31.9931 2.07187e-015
endloop
endfacet
facet normal -0.809073734814769 -0.587707147849064 0.0
outer loop
vertex -9.23396 31.8928 2.0
vertex -9.15195 31.7799 2.03214e-015
vertex -9.15195 31.7799 2.0
endloop
endfacet
facet normal -0.809073734814769 -0.587707147849064 0.0
outer loop
vertex -9.15195 31.7799 2.03214e-015
vertex -9.23396 31.8928 2.0
vertex -9.23396 31.8928 2.05035e-015
endloop
endfacet
facet normal -0.882996911339746 -0.469378796458114 6.09432774120872e-020
outer loop
vertex -9.15195 31.7799 2.0
vertex -9.08646 31.6567 2.0176e-015
vertex -9.08646 31.6567 2.0
endloop
endfacet
facet normal -0.882996911339746 -0.469378796458114 6.09432774120872e-020
outer loop
vertex -9.08646 31.6567 2.0176e-015
vertex -9.15195 31.7799 2.0
vertex -9.15195 31.7799 2.03214e-015
endloop
endfacet
facet normal -0.939684552471953 -0.342042310022583 5.83794515596974e-032
outer loop
vertex -9.08646 31.6567 2.0
vertex -9.03874 31.5256 2.007e-015
vertex -9.03874 31.5256 2.0
endloop
endfacet
facet normal -0.939684552471953 -0.342042310022583 5.83794515596974e-032
outer loop
vertex -9.03874 31.5256 2.007e-015
vertex -9.08646 31.6567 2.0
vertex -9.08646 31.6567 2.0176e-015
endloop
endfacet
facet normal -0.978122385960798 -0.20803028164754 -6.07674653163551e-032
outer loop
vertex -9.03874 31.5256 2.0
vertex -9.00973 31.3892 2.00056e-015
vertex -9.00973 31.3892 2.0
endloop
endfacet
facet normal -0.978122385960798 -0.20803028164754 -6.07674653163551e-032
outer loop
vertex -9.00973 31.3892 2.00056e-015
vertex -9.03874 31.5256 2.0
vertex -9.03874 31.5256 2.007e-015
endloop
endfacet
facet normal -0.997565950993613 -0.0697292866606851 7.93036162712255e-032
outer loop
vertex -9.00973 31.3892 2.0
vertex -9.0 31.25 1.9984e-015
vertex -9.0 31.25 2.0
endloop
endfacet
facet normal -0.997565950993613 -0.0697292866606851 7.93036162712255e-032
outer loop
vertex -9.0 31.25 1.9984e-015
vertex -9.00973 31.3892 2.0
vertex -9.00973 31.3892 2.00056e-015
endloop
endfacet
facet normal -0.997565950993614 0.0697292866606823 -6.19754288398536e-032
outer loop
vertex -9.0 31.25 2.0
vertex -9.00973 31.1108 2.00056e-015
vertex -9.00973 31.1108 2.0
endloop
endfacet
facet normal -0.997565950993614 0.0697292866606823 -6.19754288398536e-032
outer loop
vertex -9.00973 31.1108 2.00056e-015
vertex -9.0 31.25 2.0
vertex -9.0 31.25 1.9984e-015
endloop
endfacet
facet normal -0.978122385960798 0.20803028164754 6.07674653163551e-032
outer loop
vertex -9.00973 31.1108 2.0
vertex -9.03874 30.9744 2.007e-015
vertex -9.03874 30.9744 2.0
endloop
endfacet
facet normal -0.978122385960798 0.20803028164754 6.07674653163551e-032
outer loop
vertex -9.03874 30.9744 2.007e-015
vertex -9.00973 31.1108 2.0
vertex -9.00973 31.1108 2.00056e-015
endloop
endfacet
facet normal -0.939684552471948 0.342042310022596 -1.43379220543032e-031
outer loop
vertex -9.03874 30.9744 2.0
vertex -9.08646 30.8433 2.0176e-015
vertex -9.08646 30.8433 2.0
endloop
endfacet
facet normal -0.939684552471948 0.342042310022596 -1.43379220543032e-031
outer loop
vertex -9.08646 30.8433 2.0176e-015
vertex -9.03874 30.9744 2.0
vertex -9.03874 30.9744 2.007e-015
endloop
endfacet
facet normal -0.882996911339755 0.469378796458098 6.09432774120992e-020
outer loop
vertex -9.08646 30.8433 2.0
vertex -9.15195 30.7201 2.03214e-015
vertex -9.15195 30.7201 2.0
endloop
endfacet
facet normal -0.882996911339755 0.469378796458098 6.09432774120992e-020
outer loop
vertex -9.15195 30.7201 2.03214e-015
vertex -9.08646 30.8433 2.0
vertex -9.08646 30.8433 2.0176e-015
endloop
endfacet
facet normal -0.809073734814769 0.587707147849064 0.0
outer loop
vertex -9.15195 30.7201 2.0
vertex -9.23396 30.6072 2.05035e-015
vertex -9.23396 30.6072 2.0
endloop
endfacet
facet normal -0.809073734814769 0.587707147849064 0.0
outer loop
vertex -9.23396 30.6072 2.05035e-015
vertex -9.15195 30.7201 2.0
vertex -9.15195 30.7201 2.03214e-015
endloop
endfacet
facet normal -0.71915556020895 0.694849106080271 0.0
outer loop
vertex -9.23396 30.6072 2.0
vertex -9.33087 30.5069 2.07187e-015
vertex -9.33087 30.5069 2.0
endloop
endfacet
facet normal -0.71915556020895 0.694849106080271 0.0
outer loop
vertex -9.33087 30.5069 2.07187e-015
vertex -9.23396 30.6072 2.0
vertex -9.23396 30.6072 2.05035e-015
endloop
endfacet
facet normal -0.615685768048346 0.78799177344863 -0.0
outer loop
vertex -9.44081 30.421 2.09628e-015
vertex -9.33087 30.5069 2.0
vertex -9.33087 30.5069 2.07187e-015
endloop
endfacet
facet normal -0.615685768048346 0.78799177344863 -0.0
outer loop
vertex -9.33087 30.5069 2.0
vertex -9.44081 30.421 2.09628e-015
vertex -9.44081 30.421 2.0
endloop
endfacet
facet normal -0.500239388853954 0.865887148443157 -0.0
outer loop
vertex -9.56163 30.3512 2.12311e-015
vertex -9.44081 30.421 2.0
vertex -9.44081 30.421 2.09628e-015
endloop
endfacet
facet normal -0.500239388853954 0.865887148443157 -0.0
outer loop
vertex -9.44081 30.421 2.0
vertex -9.56163 30.3512 2.12311e-015
vertex -9.56163 30.3512 2.0
endloop
endfacet
facet normal -0.374848158293467 0.927086219412195 -0.0
outer loop
vertex -9.69098 30.2989 2.15183e-015
vertex -9.56163 30.3512 2.0
vertex -9.56163 30.3512 2.12311e-015
endloop
endfacet
facet normal -0.374848158293467 0.927086219412195 -0.0
outer loop
vertex -9.56163 30.3512 2.0
vertex -9.69098 30.2989 2.15183e-015
vertex -9.69098 30.2989 2.0
endloop
endfacet
facet normal -0.241574100898409 0.970382375033227 -0.0
outer loop
vertex -9.82635 30.2652 2.18189e-015
vertex -9.69098 30.2989 2.0
vertex -9.69098 30.2989 2.15183e-015
endloop
endfacet
facet normal -0.241574100898409 0.970382375033227 -0.0
outer loop
vertex -9.69098 30.2989 2.0
vertex -9.82635 30.2652 2.18189e-015
vertex -9.82635 30.2652 2.0
endloop
endfacet
facet normal -0.104647473466804 0.994509379692829 4.29880907872685e-020
outer loop
vertex -9.9651 30.2506 2.2127e-015
vertex -9.82635 30.2652 2.0
vertex -9.82635 30.2652 2.18189e-015
endloop
endfacet
facet normal -0.104647473466804 0.994509379692829 4.29880907872685e-020
outer loop
vertex -9.82635 30.2652 2.0
vertex -9.9651 30.2506 2.2127e-015
vertex -9.9651 30.2506 2.0
endloop
endfacet
facet normal -0.0 -0.0 1.0
outer loop
vertex -16.75 29.65 2.0
vertex -10.9781 31.0421 2.0
vertex -10.9976 31.1802 2.0
endloop
endfacet
facet normal -0.0 -0.0 1.0
outer loop
vertex -10.9781 31.0421 2.0
vertex -16.75 29.65 2.0
vertex -10.9397 30.908 2.0
endloop
endfacet
facet normal -0.0 -0.0 1.0
outer loop
vertex -10.9397 30.908 2.0
vertex -16.75 29.65 2.0
vertex -10.8829 30.7805 2.0
endloop
endfacet
facet normal -0.0 -0.0 1.0
outer loop
vertex -10.8829 30.7805 2.0
vertex -16.75 29.65 2.0
vertex -10.809 30.6622 2.0
endloop
endfacet
facet normal -0.0 -0.0 1.0
outer loop
vertex -10.809 30.6622 2.0
vertex -16.75 29.65 2.0
vertex -10.7193 30.5553 2.0
endloop
endfacet
facet normal -0.0 -0.0 1.0
outer loop
vertex -10.7193 30.5553 2.0
vertex -16.75 29.65 2.0
vertex -10.6157 30.462 2.0
endloop
endfacet
facet normal -0.0 -0.0 1.0
outer loop
vertex -10.6157 30.462 2.0
vertex -16.75 29.65 2.0
vertex -10.5 30.384 2.0
endloop
endfacet
facet normal -0.0 -0.0 1.0
outer loop
vertex -10.5 30.384 2.0
vertex -16.75 29.65 2.0
vertex -10.3746 30.3228 2.0
endloop
endfacet
facet normal -0.0 -0.0 1.0
outer loop
vertex -10.3746 30.3228 2.0
vertex -16.75 29.65 2.0
vertex -10.2419 30.2797 2.0
endloop
endfacet
facet normal -0.0 -0.0 1.0
outer loop
vertex -10.2419 30.2797 2.0
vertex -16.75 29.65 2.0
vertex -10.1045 30.2555 2.0
endloop
endfacet
facet normal -0.0 -0.0 1.0
outer loop
vertex -10.1045 30.2555 2.0
vertex -16.75 29.65 2.0
vertex -3.35 29.65 2.0
endloop
endfacet
facet normal -0.0 -0.0 1.0
outer loop
vertex -10.1045 30.2555 2.0
vertex -3.35 29.65 2.0
vertex -9.9651 30.2506 2.0
endloop
endfacet
facet normal -0.0 -0.0 1.0
outer loop
vertex -9.9651 30.2506 2.0
vertex -3.35 29.65 2.0
vertex -9.82635 30.2652 2.0
endloop
endfacet
facet normal -0.0 -0.0 1.0
outer loop
vertex -9.82635 30.2652 2.0
vertex -3.35 29.65 2.0
vertex -9.69098 30.2989 2.0
endloop
endfacet
facet normal -0.0 -0.0 1.0
outer loop
vertex -9.69098 30.2989 2.0
vertex -3.35 29.65 2.0
vertex -9.56163 30.3512 2.0
endloop
endfacet
facet normal -0.0 -0.0 1.0
outer loop
vertex -9.56163 30.3512 2.0
vertex -3.35 29.65 2.0
vertex -9.44081 30.421 2.0
endloop
endfacet
facet normal -0.0 -0.0 1.0
outer loop
vertex -9.44081 30.421 2.0
vertex -3.35 29.65 2.0
vertex -9.33087 30.5069 2.0
endloop
endfacet
facet normal -0.0 -0.0 1.0
outer loop
vertex -9.33087 30.5069 2.0
vertex -3.35 29.65 2.0
vertex -9.23396 30.6072 2.0
endloop
endfacet
facet normal -0.0 -0.0 1.0
outer loop
vertex -9.23396 30.6072 2.0
vertex -3.35 29.65 2.0
vertex -9.15195 30.7201 2.0
endloop
endfacet
facet normal -0.0 -0.0 1.0
outer loop
vertex -9.15195 30.7201 2.0
vertex -3.35 29.65 2.0
vertex -9.08646 30.8433 2.0
endloop
endfacet
facet normal -0.0 -0.0 1.0
outer loop
vertex -9.08646 30.8433 2.0
vertex -3.35 29.65 2.0
vertex -9.03874 30.9744 2.0
endloop
endfacet
facet normal -0.0 -0.0 1.0
outer loop
vertex -9.03874 30.9744 2.0
vertex -3.35 29.65 2.0
vertex -9.00973 31.1108 2.0
endloop
endfacet
facet normal -0.0 -0.0 1.0
outer loop
vertex -9.00973 31.1108 2.0
vertex -3.35 29.65 2.0
vertex -9.0 31.25 2.0
endloop
endfacet
facet normal -0.0 -0.0 1.0
outer loop
vertex -20.0 0.0 2.0
vertex -16.75 5.35 2.0
vertex -20.0 43.0 2.0
endloop
endfacet
facet normal -0.0 -0.0 1.0
outer loop
vertex -16.75 5.35 2.0
vertex -20.0 0.0 2.0
vertex -10.3746 2.82282 2.0
endloop
endfacet
facet normal -0.0 -0.0 1.0
outer loop
vertex -10.3746 2.82282 2.0
vertex -20.0 0.0 2.0
vertex -10.2419 2.7797 2.0
endloop
endfacet
facet normal -0.0 -0.0 1.0
outer loop
vertex -10.2419 2.7797 2.0
vertex -20.0 0.0 2.0
vertex 4.44089e-016 0.0 2.0
endloop
endfacet
facet normal -0.0 -0.0 1.0
outer loop
vertex -16.75 5.35 2.0
vertex -10.3746 2.82282 2.0
vertex -10.5 2.88397 2.0
endloop
endfacet
facet normal -0.0 -0.0 1.0
outer loop
vertex -16.75 5.35 2.0
vertex -10.5 2.88397 2.0
vertex -10.6157 2.96199 2.0
endloop
endfacet
facet normal -0.0 -0.0 1.0
outer loop
vertex -16.75 5.35 2.0
vertex -10.6157 2.96199 2.0
vertex -10.7193 3.05534 2.0
endloop
endfacet
facet normal -0.0 -0.0 1.0
outer loop
vertex -16.75 5.35 2.0
vertex -10.7193 3.05534 2.0
vertex -10.809 3.16221 2.0
endloop
endfacet
facet normal -0.0 -0.0 1.0
outer loop
vertex -16.75 5.35 2.0
vertex -10.809 3.16221 2.0
vertex -10.8829 3.28053 2.0
endloop
endfacet
facet normal -0.0 -0.0 1.0
outer loop
vertex -16.75 5.35 2.0
vertex -10.8829 3.28053 2.0
vertex -10.9397 3.40798 2.0
endloop
endfacet
facet normal -0.0 -0.0 1.0
outer loop
vertex -16.75 5.35 2.0
vertex -10.9397 3.40798 2.0
vertex -10.9781 3.54209 2.0
endloop
endfacet
facet normal -0.0 -0.0 1.0
outer loop
vertex -16.75 5.35 2.0
vertex -10.9781 3.54209 2.0
vertex -10.9976 3.68024 2.0
endloop
endfacet
facet normal -0.0 -0.0 1.0
outer loop
vertex -10.2419 2.7797 2.0
vertex 4.44089e-016 0.0 2.0
vertex -10.1045 2.75548 2.0
endloop
endfacet
facet normal -0.0 -0.0 1.0
outer loop
vertex -10.1045 2.75548 2.0
vertex 4.44089e-016 0.0 2.0
vertex -9.9651 2.75061 2.0
endloop
endfacet
facet normal -0.0 -0.0 1.0
outer loop
vertex -9.9651 2.75061 2.0
vertex 4.44089e-016 0.0 2.0
vertex -9.82635 2.76519 2.0
endloop
endfacet
facet normal -0.0 -0.0 1.0
outer loop
vertex -9.82635 2.76519 2.0
vertex 4.44089e-016 0.0 2.0
vertex -9.69098 2.79894 2.0
endloop
endfacet
facet normal -0.0 -0.0 1.0
outer loop
vertex -9.69098 2.79894 2.0
vertex 4.44089e-016 0.0 2.0
vertex -9.56163 2.85121 2.0
endloop
endfacet
facet normal -0.0 -0.0 1.0
outer loop
vertex -9.56163 2.85121 2.0
vertex 4.44089e-016 0.0 2.0
vertex -9.44081 2.92096 2.0
endloop
endfacet
facet normal -0.0 -0.0 1.0
outer loop
vertex -9.44081 2.92096 2.0
vertex 4.44089e-016 0.0 2.0
vertex -9.33087 3.00685 2.0
endloop
endfacet
facet normal -0.0 -0.0 1.0
outer loop
vertex -9.33087 3.00685 2.0
vertex 4.44089e-016 0.0 2.0
vertex -9.23396 3.10721 2.0
endloop
endfacet
facet normal -0.0 -0.0 1.0
outer loop
vertex -9.23396 3.10721 2.0
vertex 4.44089e-016 0.0 2.0
vertex -9.15195 3.22008 2.0
endloop
endfacet
facet normal -0.0 -0.0 1.0
outer loop
vertex -9.15195 3.22008 2.0
vertex 4.44089e-016 0.0 2.0
vertex -9.08646 3.34326 2.0
endloop
endfacet
facet normal -0.0 -0.0 1.0
outer loop
vertex -9.08646 3.34326 2.0
vertex 4.44089e-016 0.0 2.0
vertex -9.03874 3.47436 2.0
endloop
endfacet
facet normal -0.0 -0.0 1.0
outer loop
vertex -9.03874 3.47436 2.0
vertex 4.44089e-016 0.0 2.0
vertex -9.00973 3.61083 2.0
endloop
endfacet
facet normal -0.0 -0.0 1.0
outer loop
vertex -9.00973 3.61083 2.0
vertex 4.44089e-016 0.0 2.0
vertex -9.0 3.75 2.0
endloop
endfacet
facet normal -0.0 -0.0 1.0
outer loop
vertex -9.0 3.75 2.0
vertex 4.44089e-016 0.0 2.0
vertex -3.35 5.35 2.0
endloop
endfacet
facet normal -0.0 -0.0 1.0
outer loop
vertex -3.35 5.35 2.0
vertex 4.44089e-016 0.0 2.0
vertex -3.35 29.65 2.0
endloop
endfacet
facet normal -0.0 -0.0 1.0
outer loop
vertex -20.0 43.0 2.0
vertex -16.75 29.65 2.0
vertex 4.44089e-016 43.0 2.0
endloop
endfacet
facet normal -0.0 -0.0 1.0
outer loop
vertex -16.75 29.65 2.0
vertex -20.0 43.0 2.0
vertex -16.75 5.35 2.0
endloop
endfacet
facet normal -0.0 -0.0 1.0
outer loop
vertex 4.44089e-016 43.0 2.0
vertex -16.75 29.65 2.0
vertex -10.7193 31.9447 2.0
endloop
endfacet
facet normal -0.0 -0.0 1.0
outer loop
vertex -10.7193 31.9447 2.0
vertex -16.75 29.65 2.0
vertex -10.809 31.8378 2.0
endloop
endfacet
facet normal -0.0 -0.0 1.0
outer loop
vertex -10.809 31.8378 2.0
vertex -16.75 29.65 2.0
vertex -10.8829 31.7195 2.0
endloop
endfacet
facet normal -0.0 -0.0 1.0
outer loop
vertex -10.8829 31.7195 2.0
vertex -16.75 29.65 2.0
vertex -10.9397 31.592 2.0
endloop
endfacet
facet normal -0.0 -0.0 1.0
outer loop
vertex -10.9397 31.592 2.0
vertex -16.75 29.65 2.0
vertex -10.9781 31.4579 2.0
endloop
endfacet
facet normal -0.0 -0.0 1.0
outer loop
vertex -10.9781 31.4579 2.0
vertex -16.75 29.65 2.0
vertex -10.9976 31.3198 2.0
endloop
endfacet
facet normal -0.0 -0.0 1.0
outer loop
vertex -10.9976 31.3198 2.0
vertex -16.75 29.65 2.0
vertex -10.9976 31.1802 2.0
endloop
endfacet
facet normal -0.0 -0.0 1.0
outer loop
vertex 4.44089e-016 43.0 2.0
vertex -10.7193 31.9447 2.0
vertex -10.6157 32.038 2.0
endloop
endfacet
facet normal -0.0 -0.0 1.0
outer loop
vertex 4.44089e-016 43.0 2.0
vertex -10.6157 32.038 2.0
vertex -10.5 32.116 2.0
endloop
endfacet
facet normal -0.0 -0.0 1.0
outer loop
vertex 4.44089e-016 43.0 2.0
vertex -10.5 32.116 2.0
vertex -10.3746 32.1772 2.0
endloop
endfacet
facet normal -0.0 -0.0 1.0
outer loop
vertex 4.44089e-016 43.0 2.0
vertex -10.3746 32.1772 2.0
vertex -10.2419 32.2203 2.0
endloop
endfacet
facet normal -0.0 -0.0 1.0
outer loop
vertex 4.44089e-016 43.0 2.0
vertex -10.2419 32.2203 2.0
vertex -10.1045 32.2445 2.0
endloop
endfacet
facet normal -0.0 -0.0 1.0
outer loop
vertex 4.44089e-016 43.0 2.0
vertex -10.1045 32.2445 2.0
vertex -9.9651 32.2494 2.0
endloop
endfacet
facet normal -0.0 -0.0 1.0
outer loop
vertex 4.44089e-016 43.0 2.0
vertex -9.9651 32.2494 2.0
vertex -9.82635 32.2348 2.0
endloop
endfacet
facet normal -0.0 -0.0 1.0
outer loop
vertex 4.44089e-016 43.0 2.0
vertex -9.82635 32.2348 2.0
vertex -9.69098 32.2011 2.0
endloop
endfacet
facet normal -0.0 -0.0 1.0
outer loop
vertex 4.44089e-016 43.0 2.0
vertex -9.69098 32.2011 2.0
vertex -9.56163 32.1488 2.0
endloop
endfacet
facet normal -0.0 -0.0 1.0
outer loop
vertex 4.44089e-016 43.0 2.0
vertex -9.56163 32.1488 2.0
vertex -9.44081 32.079 2.0
endloop
endfacet
facet normal -0.0 -0.0 1.0
outer loop
vertex 4.44089e-016 43.0 2.0
vertex -9.44081 32.079 2.0
vertex -9.33087 31.9931 2.0
endloop
endfacet
facet normal -0.0 -0.0 1.0
outer loop
vertex 4.44089e-016 43.0 2.0
vertex -9.33087 31.9931 2.0
vertex -9.23396 31.8928 2.0
endloop
endfacet
facet normal -0.0 -0.0 1.0
outer loop
vertex 4.44089e-016 43.0 2.0
vertex -9.23396 31.8928 2.0
vertex -9.15195 31.7799 2.0
endloop
endfacet
facet normal -0.0 -0.0 1.0
outer loop
vertex 4.44089e-016 43.0 2.0
vertex -9.15195 31.7799 2.0
vertex -9.08646 31.6567 2.0
endloop
endfacet
facet normal -0.0 -0.0 1.0
outer loop
vertex 4.44089e-016 43.0 2.0
vertex -9.08646 31.6567 2.0
vertex -9.03874 31.5256 2.0
endloop
endfacet
facet normal -0.0 -0.0 1.0
outer loop
vertex 4.44089e-016 43.0 2.0
vertex -9.03874 31.5256 2.0
vertex -9.00973 31.3892 2.0
endloop
endfacet
facet normal -0.0 -0.0 1.0
outer loop
vertex 4.44089e-016 43.0 2.0
vertex -9.00973 31.3892 2.0
vertex -9.0 31.25 2.0
endloop
endfacet
facet normal -0.0 -0.0 1.0
outer loop
vertex 4.44089e-016 43.0 2.0
vertex -9.0 31.25 2.0
vertex -3.35 29.65 2.0
endloop
endfacet
facet normal -0.0 -0.0 1.0
outer loop
vertex 4.44089e-016 43.0 2.0
vertex -3.35 29.65 2.0
vertex 4.44089e-016 0.0 2.0
endloop
endfacet
facet normal -0.0 -0.0 1.0
outer loop
vertex -16.75 5.35 2.0
vertex -10.1045 4.74452 2.0
vertex -3.35 5.35 2.0
endloop
endfacet
facet normal -0.0 -0.0 1.0
outer loop
vertex -10.1045 4.74452 2.0
vertex -16.75 5.35 2.0
vertex -10.2419 4.7203 2.0
endloop
endfacet
facet normal -0.0 -0.0 1.0
outer loop
vertex -10.2419 4.7203 2.0
vertex -16.75 5.35 2.0
vertex -10.3746 4.67718 2.0
endloop
endfacet
facet normal -0.0 -0.0 1.0
outer loop
vertex -10.3746 4.67718 2.0
vertex -16.75 5.35 2.0
vertex -10.5 4.61602 2.0
endloop
endfacet
facet normal -0.0 -0.0 1.0
outer loop
vertex -10.5 4.61602 2.0
vertex -16.75 5.35 2.0
vertex -10.6157 4.53801 2.0
endloop
endfacet
facet normal -0.0 -0.0 1.0
outer loop
vertex -10.6157 4.53801 2.0
vertex -16.75 5.35 2.0
vertex -10.7193 4.44466 2.0
endloop
endfacet
facet normal -0.0 -0.0 1.0
outer loop
vertex -10.7193 4.44466 2.0
vertex -16.75 5.35 2.0
vertex -10.809 4.33778 2.0
endloop
endfacet
facet normal -0.0 -0.0 1.0
outer loop
vertex -10.809 4.33778 2.0
vertex -16.75 5.35 2.0
vertex -10.8829 4.21947 2.0
endloop
endfacet
facet normal -0.0 -0.0 1.0
outer loop
vertex -10.8829 4.21947 2.0
vertex -16.75 5.35 2.0
vertex -10.9397 4.09202 2.0
endloop
endfacet
facet normal -0.0 -0.0 1.0
outer loop
vertex -10.9397 4.09202 2.0
vertex -16.75 5.35 2.0
vertex -10.9781 3.95791 2.0
endloop
endfacet
facet normal -0.0 -0.0 1.0
outer loop
vertex -10.9781 3.95791 2.0
vertex -16.75 5.35 2.0
vertex -10.9976 3.81976 2.0
endloop
endfacet
facet normal -0.0 -0.0 1.0
outer loop
vertex -10.9976 3.81976 2.0
vertex -16.75 5.35 2.0
vertex -10.9976 3.68024 2.0
endloop
endfacet
facet normal -0.0 -0.0 1.0
outer loop
vertex -3.35 5.35 2.0
vertex -10.1045 4.74452 2.0
vertex -9.9651 4.74939 2.0
endloop
endfacet
facet normal -0.0 -0.0 1.0
outer loop
vertex -3.35 5.35 2.0
vertex -9.9651 4.74939 2.0
vertex -9.82635 4.73481 2.0
endloop
endfacet
facet normal -0.0 -0.0 1.0
outer loop
vertex -3.35 5.35 2.0
vertex -9.82635 4.73481 2.0
vertex -9.69098 4.70106 2.0
endloop
endfacet
facet normal -0.0 -0.0 1.0
outer loop
vertex -3.35 5.35 2.0
vertex -9.69098 4.70106 2.0
vertex -9.56163 4.64879 2.0
endloop
endfacet
facet normal -0.0 -0.0 1.0
outer loop
vertex -3.35 5.35 2.0
vertex -9.56163 4.64879 2.0
vertex -9.44081 4.57904 2.0
endloop
endfacet
facet normal -0.0 -0.0 1.0
outer loop
vertex -3.35 5.35 2.0
vertex -9.44081 4.57904 2.0
vertex -9.33087 4.49314 2.0
endloop
endfacet
facet normal -0.0 -0.0 1.0
outer loop
vertex -3.35 5.35 2.0
vertex -9.33087 4.49314 2.0
vertex -9.23396 4.39279 2.0
endloop
endfacet
facet normal -0.0 -0.0 1.0
outer loop
vertex -3.35 5.35 2.0
vertex -9.23396 4.39279 2.0
vertex -9.15195 4.27992 2.0
endloop
endfacet
facet normal -0.0 -0.0 1.0
outer loop
vertex -3.35 5.35 2.0
vertex -9.15195 4.27992 2.0
vertex -9.08646 4.15674 2.0
endloop
endfacet
facet normal -0.0 -0.0 1.0
outer loop
vertex -3.35 5.35 2.0
vertex -9.08646 4.15674 2.0
vertex -9.03874 4.02564 2.0
endloop
endfacet
facet normal -0.0 -0.0 1.0
outer loop
vertex -3.35 5.35 2.0
vertex -9.03874 4.02564 2.0
vertex -9.00973 3.88917 2.0
endloop
endfacet
facet normal -0.0 -0.0 1.0
outer loop
vertex -3.35 5.35 2.0
vertex -9.00973 3.88917 2.0
vertex -9.0 3.75 2.0
endloop
endfacet
endsolid boardmodify
