solid standoff
facet normal 7.20148922883916e-017 2.81093274695808e-016 1.0
outer loop
vertex -1.24999999999999 -2.16506350946109 11.9999999999999
vertex -1.42 1.31218657597861e-014 12.0
vertex -1.76776695296637 -1.76776695296638 12.0
endloop
endfacet
facet normal 7.20148922883916e-017 2.81093274695808e-016 1.0
outer loop
vertex -1.42 1.31218657597861e-014 12.0
vertex -1.24999999999999 -2.16506350946109 11.9999999999999
vertex -1.37161467333048 -0.367523044045567 12.0
endloop
endfacet
facet normal 7.20148922883916e-017 2.81093274695808e-016 1.0
outer loop
vertex -1.37161467333048 -0.367523044045567 12.0
vertex -1.24999999999999 -2.16506350946109 11.9999999999999
vertex -1.2297560733739 -0.709999999999987 12.0
endloop
endfacet
facet normal 7.20148922883916e-017 2.81093274695808e-016 1.0
outer loop
vertex -1.2297560733739 -0.709999999999987 12.0
vertex -1.24999999999999 -2.16506350946109 11.9999999999999
vertex -0.647047612756303 -2.41481456572267 12.0
endloop
endfacet
facet normal 7.20148922883916e-017 2.81093274695808e-016 1.0
outer loop
vertex -1.2297560733739 -0.709999999999987 12.0
vertex -0.647047612756303 -2.41481456572267 12.0
vertex -1.0040916292849 -1.00409162928488 12.0
endloop
endfacet
facet normal 7.20148922883916e-017 2.81093274695808e-016 1.0
outer loop
vertex -1.0040916292849 -1.00409162928488 12.0
vertex -0.647047612756303 -2.41481456572267 12.0
vertex -0.710000000000001 -1.22975607337389 12.0
endloop
endfacet
facet normal 7.20148922883916e-017 2.81093274695808e-016 1.0
outer loop
vertex -0.710000000000001 -1.22975607337389 12.0
vertex -0.647047612756303 -2.41481456572267 12.0
vertex -0.36752304404558 -1.37161467333046 12.0
endloop
endfacet
facet normal 7.20148922883916e-017 2.81093274695808e-016 1.0
outer loop
vertex -0.36752304404558 -1.37161467333046 12.0
vertex -0.647047612756303 -2.41481456572267 12.0
vertex 0.0 -2.50000000000001 12.0
endloop
endfacet
facet normal 7.20148922883916e-017 2.81093274695808e-016 1.0
outer loop
vertex -0.36752304404558 -1.37161467333046 12.0
vertex 0.0 -2.50000000000001 12.0
vertex -9.11505759724244e-016 -1.41999999999999 12.0
endloop
endfacet
facet normal 7.20148922883916e-017 2.81093274695808e-016 1.0
outer loop
vertex -9.11505759724244e-016 -1.41999999999999 12.0
vertex 0.0 -2.50000000000001 12.0
vertex 0.367523044045579 -1.37161467333046 12.0
endloop
endfacet
facet normal 7.20148922883916e-017 2.81093274695808e-016 1.0
outer loop
vertex 0.367523044045579 -1.37161467333046 12.0
vertex 0.0 -2.50000000000001 12.0
vertex 0.647047612756298 -2.41481456572267 12.0
endloop
endfacet
facet normal 7.20148922883916e-017 2.81093274695808e-016 1.0
outer loop
vertex 0.367523044045579 -1.37161467333046 12.0
vertex 0.647047612756298 -2.41481456572267 12.0
vertex 0.709999999999999 -1.22975607337389 12.0
endloop
endfacet
facet normal 7.20148922883916e-017 2.81093274695808e-016 1.0
outer loop
vertex 0.709999999999999 -1.22975607337389 12.0
vertex 0.647047612756298 -2.41481456572267 12.0
vertex 1.25 -2.16506350946109 11.9999999999999
endloop
endfacet
facet normal 7.20148922883916e-017 2.81093274695808e-016 1.0
outer loop
vertex 0.709999999999999 -1.22975607337389 12.0
vertex 1.25 -2.16506350946109 11.9999999999999
vertex 1.0040916292849 -1.00409162928488 12.0
endloop
endfacet
facet normal 7.20148922883916e-017 2.81093274695808e-016 1.0
outer loop
vertex 1.0040916292849 -1.00409162928488 12.0
vertex 1.25 -2.16506350946109 11.9999999999999
vertex 1.2297560733739 -0.709999999999986 12.0
endloop
endfacet
facet normal 7.20148922883916e-017 2.81093274695808e-016 1.0
outer loop
vertex 1.2297560733739 -0.709999999999986 12.0
vertex 1.25 -2.16506350946109 11.9999999999999
vertex 1.37161467333048 -0.367523044045566 12.0
endloop
endfacet
facet normal 7.20148922883916e-017 2.81093274695808e-016 1.0
outer loop
vertex 1.37161467333048 -0.367523044045566 12.0
vertex 1.25 -2.16506350946109 11.9999999999999
vertex 1.76776695296636 -1.76776695296638 12.0
endloop
endfacet
facet normal 7.20148922883916e-017 2.81093274695808e-016 1.0
outer loop
vertex 1.37161467333048 -0.367523044045566 12.0
vertex 1.76776695296636 -1.76776695296638 12.0
vertex 1.42 1.34696654507439e-014 12.0
endloop
endfacet
facet normal 7.20148922883916e-017 2.81093274695808e-016 1.0
outer loop
vertex -2.41481456572268 -0.647047612756323 12.0
vertex -2.41481456572268 0.647047612756302 12.0
vertex -2.5 1.16323617405101e-014 12.0
endloop
endfacet
facet normal 7.20148922883916e-017 2.81093274695808e-016 1.0
outer loop
vertex -2.41481456572268 0.647047612756302 12.0
vertex -2.41481456572268 -0.647047612756323 12.0
vertex -2.1650635094611 -1.25000000000002 11.9999999999999
endloop
endfacet
facet normal 7.20148922883916e-017 2.81093274695808e-016 1.0
outer loop
vertex -2.41481456572268 0.647047612756302 12.0
vertex -2.1650635094611 -1.25000000000002 11.9999999999999
vertex -2.1650635094611 1.25 12.0
endloop
endfacet
facet normal 7.20148922883916e-017 2.81093274695808e-016 1.0
outer loop
vertex -2.1650635094611 1.25 12.0
vertex -2.1650635094611 -1.25000000000002 11.9999999999999
vertex -1.76776695296637 -1.76776695296638 12.0
endloop
endfacet
facet normal 7.20148922883916e-017 2.81093274695808e-016 1.0
outer loop
vertex -2.1650635094611 1.25 12.0
vertex -1.76776695296637 -1.76776695296638 12.0
vertex -1.76776695296637 1.76776695296636 11.9999999999999
endloop
endfacet
facet normal 7.20148922883916e-017 2.81093274695808e-016 1.0
outer loop
vertex -1.76776695296637 1.76776695296636 11.9999999999999
vertex -1.76776695296637 -1.76776695296638 12.0
vertex -1.24999999999999 2.16506350946107 12.0
endloop
endfacet
facet normal 7.20148922883916e-017 2.81093274695808e-016 1.0
outer loop
vertex -1.24999999999999 2.16506350946107 12.0
vertex -1.76776695296637 -1.76776695296638 12.0
vertex -1.42 1.31218657597861e-014 12.0
endloop
endfacet
facet normal 7.20148922883916e-017 2.81093274695808e-016 1.0
outer loop
vertex -1.24999999999999 2.16506350946107 12.0
vertex -1.42 1.31218657597861e-014 12.0
vertex -1.37161467333048 0.367523044045592 12.0
endloop
endfacet
facet normal 7.20148922883916e-017 2.81093274695808e-016 1.0
outer loop
vertex -1.24999999999999 2.16506350946107 12.0
vertex -1.37161467333048 0.367523044045592 12.0
vertex -1.2297560733739 0.710000000000012 12.0
endloop
endfacet
facet normal 7.20148922883916e-017 2.81093274695808e-016 1.0
outer loop
vertex -1.24999999999999 2.16506350946107 12.0
vertex -1.2297560733739 0.710000000000012 12.0
vertex -0.647047612756303 2.41481456572265 12.0
endloop
endfacet
facet normal 7.20148922883916e-017 2.81093274695808e-016 1.0
outer loop
vertex -0.647047612756303 2.41481456572265 12.0
vertex -1.2297560733739 0.710000000000012 12.0
vertex -1.0040916292849 1.00409162928491 12.0
endloop
endfacet
facet normal 7.20148922883916e-017 2.81093274695808e-016 1.0
outer loop
vertex -0.647047612756303 2.41481456572265 12.0
vertex -1.0040916292849 1.00409162928491 12.0
vertex -0.710000000000002 1.22975607337392 12.0
endloop
endfacet
facet normal 7.20148922883916e-017 2.81093274695808e-016 1.0
outer loop
vertex -0.647047612756303 2.41481456572265 12.0
vertex -0.710000000000002 1.22975607337392 12.0
vertex -0.367523044045582 1.37161467333049 12.0
endloop
endfacet
facet normal 7.20148922883916e-017 2.81093274695808e-016 1.0
outer loop
vertex -0.647047612756303 2.41481456572265 12.0
vertex -0.367523044045582 1.37161467333049 12.0
vertex 0.0 2.49999999999998 12.0
endloop
endfacet
facet normal 7.20148922883916e-017 2.81093274695808e-016 1.0
outer loop
vertex 0.0 2.49999999999998 12.0
vertex -0.367523044045582 1.37161467333049 12.0
vertex -1.08540560520317e-015 1.42000000000001 12.0
endloop
endfacet
facet normal 7.20148922883916e-017 2.81093274695808e-016 1.0
outer loop
vertex 0.0 2.49999999999998 12.0
vertex -1.08540560520317e-015 1.42000000000001 12.0
vertex 0.367523044045578 1.37161467333049 12.0
endloop
endfacet
facet normal 7.20148922883916e-017 2.81093274695808e-016 1.0
outer loop
vertex 0.0 2.49999999999998 12.0
vertex 0.367523044045578 1.37161467333049 12.0
vertex 0.647047612756298 2.41481456572265 12.0
endloop
endfacet
facet normal 7.20148922883916e-017 2.81093274695808e-016 1.0
outer loop
vertex 0.647047612756298 2.41481456572265 12.0
vertex 0.367523044045578 1.37161467333049 12.0
vertex 0.709999999999999 1.22975607337392 12.0
endloop
endfacet
facet normal 7.20148922883916e-017 2.81093274695808e-016 1.0
outer loop
vertex 0.647047612756298 2.41481456572265 12.0
vertex 0.709999999999999 1.22975607337392 12.0
vertex 1.25 2.16506350946107 12.0
endloop
endfacet
facet normal 7.20148922883916e-017 2.81093274695808e-016 1.0
outer loop
vertex 1.25 2.16506350946107 12.0
vertex 0.709999999999999 1.22975607337392 12.0
vertex 1.0040916292849 1.00409162928491 12.0
endloop
endfacet
facet normal 7.20148922883916e-017 2.81093274695808e-016 1.0
outer loop
vertex 1.25 2.16506350946107 12.0
vertex 1.0040916292849 1.00409162928491 12.0
vertex 1.2297560733739 0.710000000000013 12.0
endloop
endfacet
facet normal 7.20148922883916e-017 2.81093274695808e-016 1.0
outer loop
vertex 1.25 2.16506350946107 12.0
vertex 1.2297560733739 0.710000000000013 12.0
vertex 1.37161467333048 0.367523044045593 12.0
endloop
endfacet
facet normal 7.20148922883916e-017 2.81093274695808e-016 1.0
outer loop
vertex 1.25 2.16506350946107 12.0
vertex 1.37161467333048 0.367523044045593 12.0
vertex 1.76776695296636 1.76776695296636 11.9999999999999
endloop
endfacet
facet normal 7.20148922883916e-017 2.81093274695808e-016 1.0
outer loop
vertex 1.76776695296636 1.76776695296636 11.9999999999999
vertex 1.37161467333048 0.367523044045593 12.0
vertex 1.42 1.34696654507439e-014 12.0
endloop
endfacet
facet normal 7.20148922883916e-017 2.81093274695808e-016 1.0
outer loop
vertex 1.76776695296636 1.76776695296636 11.9999999999999
vertex 1.42 1.34696654507439e-014 12.0
vertex 1.76776695296636 -1.76776695296638 12.0
endloop
endfacet
facet normal 7.20148922883916e-017 2.81093274695808e-016 1.0
outer loop
vertex 1.76776695296636 1.76776695296636 11.9999999999999
vertex 1.76776695296636 -1.76776695296638 12.0
vertex 2.1650635094611 -1.24999999999997 11.9999999999999
endloop
endfacet
facet normal 7.20148922883916e-017 2.81093274695808e-016 1.0
outer loop
vertex 1.76776695296636 1.76776695296636 11.9999999999999
vertex 2.1650635094611 -1.24999999999997 11.9999999999999
vertex 2.1650635094611 1.25 12.0
endloop
endfacet
facet normal 7.20148922883916e-017 2.81093274695808e-016 1.0
outer loop
vertex 2.1650635094611 1.25 12.0
vertex 2.1650635094611 -1.24999999999997 11.9999999999999
vertex 2.41481456572267 -0.647047612756323 12.0
endloop
endfacet
facet normal 7.20148922883916e-017 2.81093274695808e-016 1.0
outer loop
vertex 2.1650635094611 1.25 12.0
vertex 2.41481456572267 -0.647047612756323 12.0
vertex 2.41481456572267 0.647047612756302 12.0
endloop
endfacet
facet normal 7.20148922883916e-017 2.81093274695808e-016 1.0
outer loop
vertex 2.41481456572267 0.647047612756302 12.0
vertex 2.41481456572267 -0.647047612756323 12.0
vertex 2.5 1.16323617405101e-014 12.0
endloop
endfacet
facet normal 1.28564649919388e-016 -8.19026864785713e-015 -1.0
outer loop
vertex -2.41481456572268 0.647047612756302 -1.12798659301916e-014
vertex -2.41481456572268 -0.647047612756278 -2.8199664825479e-014
vertex -2.5 1.16323617405101e-014 0.0
endloop
endfacet
facet normal 1.28564649919388e-016 -8.19026864785713e-015 -1.0
outer loop
vertex -2.41481456572268 -0.647047612756278 -2.8199664825479e-014
vertex -2.41481456572268 0.647047612756302 -1.12798659301916e-014
vertex -2.1650635094611 1.25 -5.6399329650958e-014
endloop
endfacet
facet normal 1.28564649919388e-016 -8.19026864785713e-015 -1.0
outer loop
vertex -2.41481456572268 -0.647047612756278 -2.8199664825479e-014
vertex -2.1650635094611 1.25 -5.6399329650958e-014
vertex -2.1650635094611 -1.25000000000002 -1.12798659301916e-014
endloop
endfacet
facet normal 1.28564649919388e-016 -8.19026864785713e-015 -1.0
outer loop
vertex -2.1650635094611 -1.25000000000002 -1.12798659301916e-014
vertex -2.1650635094611 1.25 -5.6399329650958e-014
vertex -1.76776695296637 1.76776695296632 -3.38395977905748e-014
endloop
endfacet
facet normal 1.28564649919388e-016 -8.19026864785713e-015 -1.0
outer loop
vertex -2.1650635094611 -1.25000000000002 -1.12798659301916e-014
vertex -1.76776695296637 1.76776695296632 -3.38395977905748e-014
vertex -1.76776695296637 -1.76776695296638 -2.25597318603832e-014
endloop
endfacet
facet normal 1.28564649919388e-016 -8.19026864785713e-015 -1.0
outer loop
vertex -1.76776695296637 -1.76776695296638 -2.25597318603832e-014
vertex -1.76776695296637 1.76776695296632 -3.38395977905748e-014
vertex -1.54999999999999 -4.26721493138331e-014 -3.45445894112117e-014
endloop
endfacet
facet normal 1.28564649919388e-016 -8.19026864785713e-015 -1.0
outer loop
vertex -1.54999999999999 -4.26721493138331e-014 -3.45445894112117e-014
vertex -1.76776695296637 1.76776695296632 -3.38395977905748e-014
vertex -1.49718503074805 0.401169519908865 -3.45445894112117e-014
endloop
endfacet
facet normal 1.28564649919388e-016 -8.19026864785713e-015 -1.0
outer loop
vertex -1.49718503074805 0.401169519908865 -3.45445894112117e-014
vertex -1.76776695296637 1.76776695296632 -3.38395977905748e-014
vertex -1.24999999999999 2.16506350946112 -1.69197988952874e-014
endloop
endfacet
facet normal 1.28564649919388e-016 -8.19026864785713e-015 -1.0
outer loop
vertex -1.49718503074805 0.401169519908865 -3.45445894112117e-014
vertex -1.24999999999999 2.16506350946112 -1.69197988952874e-014
vertex -1.34233937586587 0.774999999999958 -3.45445894112117e-014
endloop
endfacet
facet normal 1.28564649919388e-016 -8.19026864785713e-015 -1.0
outer loop
vertex -1.34233937586587 0.774999999999958 -3.45445894112117e-014
vertex -1.24999999999999 2.16506350946112 -1.69197988952874e-014
vertex -1.09601551083914 1.09601551083911 -3.45445894112117e-014
endloop
endfacet
facet normal 1.28564649919388e-016 -8.19026864785713e-015 -1.0
outer loop
vertex -1.09601551083914 1.09601551083911 -3.45445894112117e-014
vertex -1.24999999999999 2.16506350946112 -1.69197988952874e-014
vertex -0.647047612756303 2.4148145657227 -2.8199664825479e-014
endloop
endfacet
facet normal 1.28564649919388e-016 -8.19026864785713e-015 -1.0
outer loop
vertex -1.09601551083914 1.09601551083911 -3.45445894112117e-014
vertex -0.647047612756303 2.4148145657227 -2.8199664825479e-014
vertex -0.774999999999989 1.34233937586584 -3.45445894112117e-014
endloop
endfacet
facet normal 1.28564649919388e-016 -8.19026864785713e-015 -1.0
outer loop
vertex -0.774999999999989 1.34233937586584 -3.45445894112117e-014
vertex -0.647047612756303 2.4148145657227 -2.8199664825479e-014
vertex -0.401169519908897 1.49718503074801 -3.45445894112117e-014
endloop
endfacet
facet normal 1.28564649919388e-016 -8.19026864785713e-015 -1.0
outer loop
vertex -0.401169519908897 1.49718503074801 -3.45445894112117e-014
vertex -0.647047612756303 2.4148145657227 -2.8199664825479e-014
vertex 0.0 2.49999999999998 -2.8199664825479e-014
endloop
endfacet
facet normal 1.28564649919388e-016 -8.19026864785713e-015 -1.0
outer loop
vertex -0.401169519908897 1.49718503074801 -3.45445894112117e-014
vertex 0.0 2.49999999999998 -2.8199664825479e-014
vertex 9.99142246530315e-015 1.54999999999996 -3.45445894112117e-014
endloop
endfacet
facet normal 1.28564649919388e-016 -8.19026864785713e-015 -1.0
outer loop
vertex 9.99142246530315e-015 1.54999999999996 -3.45445894112117e-014
vertex 0.0 2.49999999999998 -2.8199664825479e-014
vertex 0.647047612756298 2.4148145657227 -2.8199664825479e-014
endloop
endfacet
facet normal 1.28564649919388e-016 -8.19026864785713e-015 -1.0
outer loop
vertex 9.99142246530315e-015 1.54999999999996 -3.45445894112117e-014
vertex 0.647047612756298 2.4148145657227 -2.8199664825479e-014
vertex 0.401169519908918 1.49718503074801 -3.17246229286638e-014
endloop
endfacet
facet normal 1.28564649919388e-016 -8.19026864785713e-015 -1.0
outer loop
vertex 0.401169519908918 1.49718503074801 -3.17246229286638e-014
vertex 0.647047612756298 2.4148145657227 -2.8199664825479e-014
vertex 0.77500000000001 1.34233937586584 -3.17246229286638e-014
endloop
endfacet
facet normal 1.28564649919388e-016 -8.19026864785713e-015 -1.0
outer loop
vertex 0.77500000000001 1.34233937586584 -3.17246229286638e-014
vertex 0.647047612756298 2.4148145657227 -2.8199664825479e-014
vertex 1.25 2.16506350946112 -1.12798659301916e-014
endloop
endfacet
facet normal 1.28564649919388e-016 -8.19026864785713e-015 -1.0
outer loop
vertex 0.77500000000001 1.34233937586584 -3.17246229286638e-014
vertex 1.25 2.16506350946112 -1.12798659301916e-014
vertex 1.09601551083916 1.09601551083911 -3.17246229286638e-014
endloop
endfacet
facet normal 1.28564649919388e-016 -8.19026864785713e-015 -1.0
outer loop
vertex 1.09601551083916 1.09601551083911 -3.17246229286638e-014
vertex 1.25 2.16506350946112 -1.12798659301916e-014
vertex 1.34233937586589 0.774999999999957 -2.89046564461159e-014
endloop
endfacet
facet normal 1.28564649919388e-016 -8.19026864785713e-015 -1.0
outer loop
vertex 1.34233937586589 0.774999999999957 -2.89046564461159e-014
vertex 1.25 2.16506350946112 -1.12798659301916e-014
vertex 1.76776695296636 1.76776695296636 -4.51194637207664e-014
endloop
endfacet
facet normal 1.28564649919388e-016 -8.19026864785713e-015 -1.0
outer loop
vertex 1.34233937586589 0.774999999999957 -2.89046564461159e-014
vertex 1.76776695296636 1.76776695296636 -4.51194637207664e-014
vertex 1.49718503074807 0.401169519908864 -2.89046564461159e-014
endloop
endfacet
facet normal 1.28564649919388e-016 -8.19026864785713e-015 -1.0
outer loop
vertex 1.49718503074807 0.401169519908864 -2.89046564461159e-014
vertex 1.76776695296636 1.76776695296636 -4.51194637207664e-014
vertex 1.55000000000001 -4.2861969567701e-014 -2.89046564461159e-014
endloop
endfacet
facet normal 1.28564649919388e-016 -8.19026864785713e-015 -1.0
outer loop
vertex -1.76776695296637 -1.76776695296638 -2.25597318603832e-014
vertex -1.49718503074805 -0.401169519908949 -3.17246229286638e-014
vertex -1.24999999999999 -2.16506350946109 5.63993296509579e-015
endloop
endfacet
facet normal 1.28564649919388e-016 -8.19026864785713e-015 -1.0
outer loop
vertex -1.49718503074805 -0.401169519908949 -3.17246229286638e-014
vertex -1.76776695296637 -1.76776695296638 -2.25597318603832e-014
vertex -1.54999999999999 -4.26721493138331e-014 -3.45445894112117e-014
endloop
endfacet
facet normal 1.28564649919388e-016 -8.19026864785713e-015 -1.0
outer loop
vertex -1.24999999999999 -2.16506350946109 5.63993296509579e-015
vertex -1.49718503074805 -0.401169519908949 -3.17246229286638e-014
vertex -1.34233937586587 -0.775000000000042 -3.17246229286638e-014
endloop
endfacet
facet normal 1.28564649919388e-016 -8.19026864785713e-015 -1.0
outer loop
vertex -1.24999999999999 -2.16506350946109 5.63993296509579e-015
vertex -1.34233937586587 -0.775000000000042 -3.17246229286638e-014
vertex -1.09601551083914 -1.09601551083919 -3.17246229286638e-014
endloop
endfacet
facet normal 1.28564649919388e-016 -8.19026864785713e-015 -1.0
outer loop
vertex -1.24999999999999 -2.16506350946109 5.63993296509579e-015
vertex -1.09601551083914 -1.09601551083919 -3.17246229286638e-014
vertex -0.647047612756303 -2.41481456572267 5.07593966858622e-014
endloop
endfacet
facet normal 1.28564649919388e-016 -8.19026864785713e-015 -1.0
outer loop
vertex -0.647047612756303 -2.41481456572267 5.07593966858622e-014
vertex -1.09601551083914 -1.09601551083919 -3.17246229286638e-014
vertex -0.77499999999999 -1.34233937586592 -2.89046564461159e-014
endloop
endfacet
facet normal 1.28564649919388e-016 -8.19026864785713e-015 -1.0
outer loop
vertex -0.647047612756303 -2.41481456572267 5.07593966858622e-014
vertex -0.77499999999999 -1.34233937586592 -2.89046564461159e-014
vertex -0.401169519908898 -1.4971850307481 -2.89046564461159e-014
endloop
endfacet
facet normal 1.28564649919388e-016 -8.19026864785713e-015 -1.0
outer loop
vertex -0.647047612756303 -2.41481456572267 5.07593966858622e-014
vertex -0.401169519908898 -1.4971850307481 -2.89046564461159e-014
vertex 0.0 -2.50000000000001 -5.63993296509579e-015
endloop
endfacet
facet normal 1.28564649919388e-016 -8.19026864785713e-015 -1.0
outer loop
vertex 0.0 -2.50000000000001 -5.63993296509579e-015
vertex -0.401169519908898 -1.4971850307481 -2.89046564461159e-014
vertex 9.61178195756747e-015 -1.55000000000004 -2.89046564461159e-014
endloop
endfacet
facet normal 1.28564649919388e-016 -8.19026864785713e-015 -1.0
outer loop
vertex 0.0 -2.50000000000001 -5.63993296509579e-015
vertex 9.61178195756747e-015 -1.55000000000004 -2.89046564461159e-014
vertex 0.647047612756298 -2.41481456572267 5.07593966858622e-014
endloop
endfacet
facet normal 1.28564649919388e-016 -8.19026864785713e-015 -1.0
outer loop
vertex 0.647047612756298 -2.41481456572267 5.07593966858622e-014
vertex 9.61178195756747e-015 -1.55000000000004 -2.89046564461159e-014
vertex 0.401169519908917 -1.4971850307481 -2.60846899635681e-014
endloop
endfacet
facet normal 1.28564649919388e-016 -8.19026864785713e-015 -1.0
outer loop
vertex 0.647047612756298 -2.41481456572267 5.07593966858622e-014
vertex 0.401169519908917 -1.4971850307481 -2.60846899635681e-014
vertex 0.775000000000009 -1.34233937586592 -2.60846899635681e-014
endloop
endfacet
facet normal 1.28564649919388e-016 -8.19026864785713e-015 -1.0
outer loop
vertex 0.647047612756298 -2.41481456572267 5.07593966858622e-014
vertex 0.775000000000009 -1.34233937586592 -2.60846899635681e-014
vertex 1.25 -2.16506350946109 -5.63993296509579e-015
endloop
endfacet
facet normal 1.28564649919388e-016 -8.19026864785713e-015 -1.0
outer loop
vertex 1.25 -2.16506350946109 -5.63993296509579e-015
vertex 0.775000000000009 -1.34233937586592 -2.60846899635681e-014
vertex 1.09601551083916 -1.09601551083919 -2.60846899635681e-014
endloop
endfacet
facet normal 1.28564649919388e-016 -8.19026864785713e-015 -1.0
outer loop
vertex 1.25 -2.16506350946109 -5.63993296509579e-015
vertex 1.09601551083916 -1.09601551083919 -2.60846899635681e-014
vertex 1.34233937586589 -0.775000000000043 -2.60846899635681e-014
endloop
endfacet
facet normal 1.28564649919388e-016 -8.19026864785713e-015 -1.0
outer loop
vertex 1.25 -2.16506350946109 -5.63993296509579e-015
vertex 1.34233937586589 -0.775000000000043 -2.60846899635681e-014
vertex 1.76776695296636 -1.76776695296638 -2.25597318603832e-014
endloop
endfacet
facet normal 1.28564649919388e-016 -8.19026864785713e-015 -1.0
outer loop
vertex 1.76776695296636 -1.76776695296638 -2.25597318603832e-014
vertex 1.34233937586589 -0.775000000000043 -2.60846899635681e-014
vertex 1.49718503074807 -0.401169519908951 -2.60846899635681e-014
endloop
endfacet
facet normal 1.28564649919388e-016 -8.19026864785713e-015 -1.0
outer loop
vertex 1.76776695296636 -1.76776695296638 -2.25597318603832e-014
vertex 1.49718503074807 -0.401169519908951 -2.60846899635681e-014
vertex 1.55000000000001 -4.2861969567701e-014 -2.89046564461159e-014
endloop
endfacet
facet normal 1.28564649919388e-016 -8.19026864785713e-015 -1.0
outer loop
vertex 1.76776695296636 -1.76776695296638 -2.25597318603832e-014
vertex 1.55000000000001 -4.2861969567701e-014 -2.89046564461159e-014
vertex 1.76776695296636 1.76776695296636 -4.51194637207664e-014
endloop
endfacet
facet normal 1.28564649919388e-016 -8.19026864785713e-015 -1.0
outer loop
vertex 1.76776695296636 -1.76776695296638 -2.25597318603832e-014
vertex 1.76776695296636 1.76776695296636 -4.51194637207664e-014
vertex 2.1650635094611 1.25 -3.38395977905748e-014
endloop
endfacet
facet normal 1.28564649919388e-016 -8.19026864785713e-015 -1.0
outer loop
vertex 1.76776695296636 -1.76776695296638 -2.25597318603832e-014
vertex 2.1650635094611 1.25 -3.38395977905748e-014
vertex 2.1650635094611 -1.25000000000002 -1.69197988952874e-014
endloop
endfacet
facet normal 1.28564649919388e-016 -8.19026864785713e-015 -1.0
outer loop
vertex 2.1650635094611 -1.25000000000002 -1.69197988952874e-014
vertex 2.1650635094611 1.25 -3.38395977905748e-014
vertex 2.41481456572267 0.647047612756302 -1.12798659301916e-014
endloop
endfacet
facet normal 1.28564649919388e-016 -8.19026864785713e-015 -1.0
outer loop
vertex 2.1650635094611 -1.25000000000002 -1.69197988952874e-014
vertex 2.41481456572267 0.647047612756302 -1.12798659301916e-014
vertex 2.41481456572267 -0.647047612756278 -2.8199664825479e-014
endloop
endfacet
facet normal 1.28564649919388e-016 -8.19026864785713e-015 -1.0
outer loop
vertex 2.41481456572267 -0.647047612756278 -2.8199664825479e-014
vertex 2.41481456572267 0.647047612756302 -1.12798659301916e-014
vertex 2.5 1.16323617405101e-014 0.0
endloop
endfacet
facet normal -0.707106781186548 0.707106781186547 -5.78045472804094e-016
outer loop
vertex -1.76776695296637 1.76776695296636 11.9999999999999
vertex -2.1650635094611 1.25 -5.6399329650958e-014
vertex -2.1650635094611 1.25 12.0
endloop
endfacet
facet normal -0.86602540378443 0.500000000000016 -5.76907326258356e-016
outer loop
vertex -2.1650635094611 1.25 -5.6399329650958e-014
vertex -1.76776695296637 1.76776695296636 11.9999999999999
vertex -1.76776695296637 1.76776695296632 -3.38395977905748e-014
endloop
endfacet
facet normal -0.866025403784431 0.500000000000014 -5.76907326258346e-016
outer loop
vertex -2.1650635094611 1.25 12.0
vertex -2.41481456572268 0.647047612756302 -1.12798659301916e-014
vertex -2.41481456572268 0.647047612756302 12.0
endloop
endfacet
facet normal -0.965925826289066 0.258819045102529 3.07166658045478e-019
outer loop
vertex -2.41481456572268 0.647047612756302 -1.12798659301916e-014
vertex -2.1650635094611 1.25 12.0
vertex -2.1650635094611 1.25 -5.6399329650958e-014
endloop
endfacet
facet normal -0.965925826289067 0.258819045102525 3.07166658045472e-019
outer loop
vertex -2.41481456572268 0.647047612756302 12.0
vertex -2.5 1.16323617405101e-014 0.0
vertex -2.5 1.16323617405101e-014 12.0
endloop
endfacet
facet normal -1.0 1.14953317653843e-015 -1.23926997090458e-016
outer loop
vertex -2.5 1.16323617405101e-014 0.0
vertex -2.41481456572268 0.647047612756302 12.0
vertex -2.41481456572268 0.647047612756302 -1.12798659301916e-014
endloop
endfacet
facet normal -1.0 2.60204408952889e-015 -1.23926997090457e-016
outer loop
vertex -2.5 1.16323617405101e-014 12.0
vertex -2.41481456572268 -0.647047612756278 -2.8199664825479e-014
vertex -2.41481456572268 -0.647047612756323 12.0
endloop
endfacet
facet normal -0.965925826289069 -0.258819045102517 -4.8693994323436e-016
outer loop
vertex -2.41481456572268 -0.647047612756278 -2.8199664825479e-014
vertex -2.5 1.16323617405101e-014 12.0
vertex -2.5 1.16323617405101e-014 0.0
endloop
endfacet
facet normal -0.96592582628907 -0.258819045102516 -4.86939943234358e-016
outer loop
vertex -2.41481456572268 -0.647047612756323 12.0
vertex -2.1650635094611 -1.25000000000002 -1.12798659301916e-014
vertex -2.1650635094611 -1.25000000000002 11.9999999999999
endloop
endfacet
facet normal -0.866025403784437 -0.500000000000002 -3.63551446881647e-016
outer loop
vertex -2.1650635094611 -1.25000000000002 -1.12798659301916e-014
vertex -2.41481456572268 -0.647047612756323 12.0
vertex -2.41481456572268 -0.647047612756278 -2.8199664825479e-014
endloop
endfacet
facet normal -0.866025403784437 -0.500000000000003 -3.63551446881644e-016
outer loop
vertex -2.1650635094611 -1.25000000000002 11.9999999999999
vertex -1.76776695296637 -1.76776695296638 -2.25597318603832e-014
vertex -1.76776695296637 -1.76776695296638 12.0
endloop
endfacet
facet normal -0.707106781186536 -0.707106781186559 -7.04277996656522e-019
outer loop
vertex -1.76776695296637 -1.76776695296638 -2.25597318603832e-014
vertex -2.1650635094611 -1.25000000000002 11.9999999999999
vertex -2.1650635094611 -1.25000000000002 -1.12798659301916e-014
endloop
endfacet
facet normal -0.499999999999998 -0.86602540378444 -1.31571968999659e-019
outer loop
vertex -1.24999999999999 -2.16506350946109 5.63993296509579e-015
vertex -1.76776695296637 -1.76776695296638 12.0
vertex -1.76776695296637 -1.76776695296638 -2.25597318603832e-014
endloop
endfacet
facet normal -0.707106781186535 -0.70710678118656 -7.04277996656517e-019
outer loop
vertex -1.76776695296637 -1.76776695296638 12.0
vertex -1.24999999999999 -2.16506350946109 5.63993296509579e-015
vertex -1.24999999999999 -2.16506350946109 11.9999999999999
endloop
endfacet
facet normal -0.258819045102528 -0.965925826289066 6.10894389544467e-020
outer loop
vertex -0.647047612756303 -2.41481456572267 5.07593966858622e-014
vertex -1.24999999999999 -2.16506350946109 11.9999999999999
vertex -1.24999999999999 -2.16506350946109 5.63993296509579e-015
endloop
endfacet
facet normal -0.499999999999994 -0.866025403784442 -1.31571968999655e-019
outer loop
vertex -1.24999999999999 -2.16506350946109 11.9999999999999
vertex -0.647047612756303 -2.41481456572267 5.07593966858622e-014
vertex -0.647047612756303 -2.41481456572267 12.0
endloop
endfacet
facet normal 4.45555494782345e-016 -1.0 3.42243474582879e-021
outer loop
vertex 0.0 -2.50000000000001 12.0
vertex -0.647047612756303 -2.41481456572267 5.07593966858622e-014
vertex 0.0 -2.50000000000001 -5.63993296509579e-015
endloop
endfacet
facet normal -0.258819045102528 -0.965925826289066 6.10894389544467e-020
outer loop
vertex -0.647047612756303 -2.41481456572267 5.07593966858622e-014
vertex 0.0 -2.50000000000001 12.0
vertex -0.647047612756303 -2.41481456572267 12.0
endloop
endfacet
facet normal 0.258819045102526 -0.965925826289067 -9.34611819841641e-020
outer loop
vertex 0.647047612756298 -2.41481456572267 5.07593966858622e-014
vertex 0.0 -2.50000000000001 12.0
vertex 0.0 -2.50000000000001 -5.63993296509579e-015
endloop
endfacet
facet normal 4.45555494782345e-016 -1.0 3.42243474582879e-021
outer loop
vertex 0.0 -2.50000000000001 12.0
vertex 0.647047612756298 -2.41481456572267 5.07593966858622e-014
vertex 0.647047612756298 -2.41481456572267 12.0
endloop
endfacet
facet normal 0.499999999999996 -0.866025403784441 9.57777912240464e-020
outer loop
vertex 1.25 -2.16506350946109 11.9999999999999
vertex 0.647047612756298 -2.41481456572267 5.07593966858622e-014
vertex 1.25 -2.16506350946109 -5.63993296509579e-015
endloop
endfacet
facet normal 0.258819045102526 -0.965925826289067 -9.34611819841641e-020
outer loop
vertex 0.647047612756298 -2.41481456572267 5.07593966858622e-014
vertex 1.25 -2.16506350946109 11.9999999999999
vertex 0.647047612756298 -2.41481456572267 12.0
endloop
endfacet
facet normal 0.707106781186544 -0.707106781186551 5.77233435110933e-016
outer loop
vertex 1.76776695296636 -1.76776695296638 12.0
vertex 1.25 -2.16506350946109 -5.63993296509579e-015
vertex 1.76776695296636 -1.76776695296638 -2.25597318603832e-014
endloop
endfacet
facet normal 0.5 -0.866025403784439 9.57777912240518e-020
outer loop
vertex 1.25 -2.16506350946109 -5.63993296509579e-015
vertex 1.76776695296636 -1.76776695296638 12.0
vertex 1.25 -2.16506350946109 11.9999999999999
endloop
endfacet
facet normal 0.866025403784443 -0.499999999999993 5.7686012361831e-016
outer loop
vertex 2.1650635094611 -1.25000000000002 -1.69197988952874e-014
vertex 1.76776695296636 -1.76776695296638 12.0
vertex 1.76776695296636 -1.76776695296638 -2.25597318603832e-014
endloop
endfacet
facet normal 0.707106781186544 -0.707106781186551 5.77233435110933e-016
outer loop
vertex 1.76776695296636 -1.76776695296638 12.0
vertex 2.1650635094611 -1.25000000000002 -1.69197988952874e-014
vertex 2.1650635094611 -1.24999999999997 11.9999999999999
endloop
endfacet
facet normal 0.965925826289068 -0.258819045102523 -1.24103574272437e-016
outer loop
vertex 2.41481456572267 -0.647047612756278 -2.8199664825479e-014
vertex 2.1650635094611 -1.24999999999997 11.9999999999999
vertex 2.1650635094611 -1.25000000000002 -1.69197988952874e-014
endloop
endfacet
facet normal 0.866025403784442 -0.499999999999993 5.76860123618312e-016
outer loop
vertex 2.1650635094611 -1.24999999999997 11.9999999999999
vertex 2.41481456572267 -0.647047612756278 -2.8199664825479e-014
vertex 2.41481456572267 -0.647047612756323 12.0
endloop
endfacet
facet normal 0.965925826289068 -0.258819045102523 -1.24103574272437e-016
outer loop
vertex 2.41481456572267 -0.647047612756278 -2.8199664825479e-014
vertex 2.5 1.16323617405101e-014 12.0
vertex 2.41481456572267 -0.647047612756323 12.0
endloop
endfacet
facet normal 1.0 2.42382189161595e-015 -1.24061361137367e-016
outer loop
vertex 2.5 1.16323617405101e-014 12.0
vertex 2.41481456572267 -0.647047612756278 -2.8199664825479e-014
vertex 2.5 1.16323617405101e-014 0.0
endloop
endfacet
facet normal 0.965925826289067 0.258819045102527 1.17589335527352e-019
outer loop
vertex 2.41481456572267 0.647047612756302 -1.12798659301916e-014
vertex 2.5 1.16323617405101e-014 12.0
vertex 2.5 1.16323617405101e-014 0.0
endloop
endfacet
facet normal 1.0 2.42382189161595e-015 -1.24061361137367e-016
outer loop
vertex 2.5 1.16323617405101e-014 12.0
vertex 2.41481456572267 0.647047612756302 -1.12798659301916e-014
vertex 2.41481456572267 0.647047612756302 12.0
endloop
endfacet
facet normal 0.866025403784436 0.500000000000004 -1.86310485582281e-019
outer loop
vertex 2.1650635094611 1.25 -3.38395977905748e-014
vertex 2.41481456572267 0.647047612756302 12.0
vertex 2.41481456572267 0.647047612756302 -1.12798659301916e-014
endloop
endfacet
facet normal 0.965925826289067 0.258819045102525 1.17589335527345e-019
outer loop
vertex 2.41481456572267 0.647047612756302 12.0
vertex 2.1650635094611 1.25 -3.38395977905748e-014
vertex 2.1650635094611 1.25 12.0
endloop
endfacet
facet normal 0.707106781186548 0.707106781186547 7.5216315610054e-016
outer loop
vertex 1.76776695296636 1.76776695296636 -4.51194637207664e-014
vertex 2.1650635094611 1.25 12.0
vertex 2.1650635094611 1.25 -3.38395977905748e-014
endloop
endfacet
facet normal 0.866025403784438 0.500000000000002 -1.86310485582263e-019
outer loop
vertex 2.1650635094611 1.25 12.0
vertex 1.76776695296636 1.76776695296636 -4.51194637207664e-014
vertex 1.76776695296636 1.76776695296636 11.9999999999999
endloop
endfacet
facet normal 0.500000000000008 0.866025403784434 2.50446448849561e-015
outer loop
vertex 1.25 2.16506350946112 -1.12798659301916e-014
vertex 1.76776695296636 1.76776695296636 11.9999999999999
vertex 1.76776695296636 1.76776695296636 -4.51194637207664e-014
endloop
endfacet
facet normal 0.707106781186547 0.707106781186548 7.52163156100547e-016
outer loop
vertex 1.76776695296636 1.76776695296636 11.9999999999999
vertex 1.25 2.16506350946112 -1.12798659301916e-014
vertex 1.25 2.16506350946107 12.0
endloop
endfacet
facet normal 0.258819045102509 0.965925826289071 2.69174417781475e-015
outer loop
vertex 0.647047612756298 2.41481456572265 12.0
vertex 1.25 2.16506350946112 -1.12798659301916e-014
vertex 0.647047612756298 2.4148145657227 -2.8199664825479e-014
endloop
endfacet
facet normal 0.500000000000008 0.866025403784434 2.50446448849561e-015
outer loop
vertex 1.25 2.16506350946112 -1.12798659301916e-014
vertex 0.647047612756298 2.41481456572265 12.0
vertex 1.25 2.16506350946107 12.0
endloop
endfacet
facet normal 4.54466604677992e-016 1.0 1.87990168792519e-015
outer loop
vertex 0.0 2.49999999999998 12.0
vertex 0.647047612756298 2.4148145657227 -2.8199664825479e-014
vertex 0.0 2.49999999999998 -2.8199664825479e-014
endloop
endfacet
facet normal 0.258819045102508 0.965925826289072 2.69174417781474e-015
outer loop
vertex 0.647047612756298 2.4148145657227 -2.8199664825479e-014
vertex 0.0 2.49999999999998 12.0
vertex 0.647047612756298 2.41481456572265 12.0
endloop
endfacet
facet normal -0.258819045102512 0.965925826289071 2.69263615195296e-015
outer loop
vertex -0.647047612756303 2.41481456572265 12.0
vertex 0.0 2.49999999999998 -2.8199664825479e-014
vertex -0.647047612756303 2.4148145657227 -2.8199664825479e-014
endloop
endfacet
facet normal 4.45555494782344e-016 1.0 1.87990168792519e-015
outer loop
vertex 0.0 2.49999999999998 -2.8199664825479e-014
vertex -0.647047612756303 2.41481456572265 12.0
vertex 0.0 2.49999999999998 12.0
endloop
endfacet
facet normal -0.500000000000016 0.86602540378443 1.75181555047947e-015
outer loop
vertex -1.24999999999999 2.16506350946112 -1.69197988952874e-014
vertex -0.647047612756303 2.41481456572265 12.0
vertex -0.647047612756303 2.4148145657227 -2.8199664825479e-014
endloop
endfacet
facet normal -0.258819045102512 0.965925826289071 2.69263615195296e-015
outer loop
vertex -0.647047612756303 2.41481456572265 12.0
vertex -1.24999999999999 2.16506350946112 -1.69197988952874e-014
vertex -1.24999999999999 2.16506350946107 12.0
endloop
endfacet
facet normal -0.707106781186548 0.707106781186547 -5.78045472804094e-016
outer loop
vertex -1.76776695296637 1.76776695296636 11.9999999999999
vertex -1.24999999999999 2.16506350946112 -1.69197988952874e-014
vertex -1.76776695296637 1.76776695296632 -3.38395977905748e-014
endloop
endfacet
facet normal -0.500000000000016 0.86602540378443 1.75181555047947e-015
outer loop
vertex -1.24999999999999 2.16506350946112 -1.69197988952874e-014
vertex -1.76776695296637 1.76776695296636 11.9999999999999
vertex -1.24999999999999 2.16506350946107 12.0
endloop
endfacet
facet normal -0.0 -0.0 1.0
outer loop
vertex -1.37161467333048 -0.367523044045569 15.9999999999999
vertex -1.37161467333048 0.36752304404559 15.9999999999999
vertex -1.42 1.13715119722917e-014 15.9999999999999
endloop
endfacet
facet normal -0.0 -0.0 1.0
outer loop
vertex -1.37161467333048 0.36752304404559 15.9999999999999
vertex -1.37161467333048 -0.367523044045569 15.9999999999999
vertex -1.2297560733739 0.710000000000011 15.9999999999999
endloop
endfacet
facet normal -0.0 -0.0 1.0
outer loop
vertex -1.2297560733739 0.710000000000011 15.9999999999999
vertex -1.37161467333048 -0.367523044045569 15.9999999999999
vertex -1.2297560733739 -0.709999999999989 15.9999999999999
endloop
endfacet
facet normal -0.0 -0.0 1.0
outer loop
vertex -1.2297560733739 0.710000000000011 15.9999999999999
vertex -1.2297560733739 -0.709999999999989 15.9999999999999
vertex -1.0040916292849 1.00409162928491 15.9999999999999
endloop
endfacet
facet normal -0.0 -0.0 1.0
outer loop
vertex -1.0040916292849 1.00409162928491 15.9999999999999
vertex -1.2297560733739 -0.709999999999989 15.9999999999999
vertex -1.0040916292849 -1.00409162928489 15.9999999999999
endloop
endfacet
facet normal -0.0 -0.0 1.0
outer loop
vertex -1.0040916292849 1.00409162928491 15.9999999999999
vertex -1.0040916292849 -1.00409162928489 15.9999999999999
vertex -0.710000000000001 1.22975607337391 15.9999999999999
endloop
endfacet
facet normal -0.0 -0.0 1.0
outer loop
vertex -0.710000000000001 1.22975607337391 15.9999999999999
vertex -1.0040916292849 -1.00409162928489 15.9999999999999
vertex -0.71 -1.22975607337389 15.9999999999999
endloop
endfacet
facet normal -0.0 -0.0 1.0
outer loop
vertex -0.710000000000001 1.22975607337391 15.9999999999999
vertex -0.71 -1.22975607337389 15.9999999999999
vertex -0.367523044045581 1.37161467333049 15.9999999999999
endloop
endfacet
facet normal -0.0 -0.0 1.0
outer loop
vertex -0.367523044045581 1.37161467333049 15.9999999999999
vertex -0.71 -1.22975607337389 15.9999999999999
vertex -0.367523044045579 -1.37161467333047 15.9999999999999
endloop
endfacet
facet normal -0.0 -0.0 1.0
outer loop
vertex -0.367523044045581 1.37161467333049 15.9999999999999
vertex -0.367523044045579 -1.37161467333047 15.9999999999999
vertex 0.0 1.42000000000001 15.9999999999999
endloop
endfacet
facet normal -0.0 -0.0 1.0
outer loop
vertex 0.0 1.42000000000001 15.9999999999999
vertex -0.367523044045579 -1.37161467333047 15.9999999999999
vertex 1.73899845478924e-016 -1.41999999999999 15.9999999999999
endloop
endfacet
facet normal -0.0 -0.0 1.0
outer loop
vertex 0.0 1.42000000000001 15.9999999999999
vertex 1.73899845478924e-016 -1.41999999999999 15.9999999999999
vertex 0.367523044045579 1.37161467333049 15.9999999999999
endloop
endfacet
facet normal -0.0 -0.0 1.0
outer loop
vertex 0.367523044045579 1.37161467333049 15.9999999999999
vertex 1.73899845478924e-016 -1.41999999999999 15.9999999999999
vertex 0.36752304404558 -1.37161467333047 15.9999999999999
endloop
endfacet
facet normal -0.0 -0.0 1.0
outer loop
vertex 0.367523044045579 1.37161467333049 15.9999999999999
vertex 0.36752304404558 -1.37161467333047 15.9999999999999
vertex 0.71 1.22975607337391 15.9999999999999
endloop
endfacet
facet normal -0.0 -0.0 1.0
outer loop
vertex 0.71 1.22975607337391 15.9999999999999
vertex 0.36752304404558 -1.37161467333047 15.9999999999999
vertex 0.71 -1.22975607337389 15.9999999999999
endloop
endfacet
facet normal -0.0 -0.0 1.0
outer loop
vertex 0.71 1.22975607337391 15.9999999999999
vertex 0.71 -1.22975607337389 15.9999999999999
vertex 1.0040916292849 1.00409162928491 15.9999999999999
endloop
endfacet
facet normal -0.0 -0.0 1.0
outer loop
vertex 1.0040916292849 1.00409162928491 15.9999999999999
vertex 0.71 -1.22975607337389 15.9999999999999
vertex 1.0040916292849 -1.00409162928489 15.9999999999999
endloop
endfacet
facet normal -0.0 -0.0 1.0
outer loop
vertex 1.0040916292849 1.00409162928491 15.9999999999999
vertex 1.0040916292849 -1.00409162928489 15.9999999999999
vertex 1.2297560733739 0.710000000000012 15.9999999999999
endloop
endfacet
facet normal -0.0 -0.0 1.0
outer loop
vertex 1.2297560733739 0.710000000000012 15.9999999999999
vertex 1.0040916292849 -1.00409162928489 15.9999999999999
vertex 1.2297560733739 -0.709999999999988 15.9999999999999
endloop
endfacet
facet normal -0.0 -0.0 1.0
outer loop
vertex 1.2297560733739 0.710000000000012 15.9999999999999
vertex 1.2297560733739 -0.709999999999988 15.9999999999999
vertex 1.37161467333048 -0.367523044045568 15.9999999999999
endloop
endfacet
facet normal -0.0 -0.0 1.0
outer loop
vertex 1.2297560733739 0.710000000000012 15.9999999999999
vertex 1.37161467333048 -0.367523044045568 15.9999999999999
vertex 1.37161467333048 0.367523044045591 15.9999999999999
endloop
endfacet
facet normal -0.0 -0.0 1.0
outer loop
vertex 1.37161467333048 0.367523044045591 15.9999999999999
vertex 1.37161467333048 -0.367523044045568 15.9999999999999
vertex 1.42 1.17193116632495e-014 15.9999999999999
endloop
endfacet
facet normal -2.40599967182466e-016 1.0 4.37588446873596e-016
outer loop
vertex 0.0 1.42000000000001 15.9999999999999
vertex 0.367523044045578 1.37161467333049 12.0
vertex -1.08540560520317e-015 1.42000000000001 12.0
endloop
endfacet
facet normal 0.258819045102521 0.965925826289068 3.52447071549026e-016
outer loop
vertex 0.367523044045578 1.37161467333049 12.0
vertex 0.0 1.42000000000001 15.9999999999999
vertex 0.367523044045579 1.37161467333049 15.9999999999999
endloop
endfacet
facet normal 0.258819045102521 0.965925826289068 3.52447071549026e-016
outer loop
vertex 0.367523044045579 1.37161467333049 15.9999999999999
vertex 0.709999999999999 1.22975607337392 12.0
vertex 0.367523044045578 1.37161467333049 12.0
endloop
endfacet
facet normal 0.5 0.866025403784439 2.43287010744715e-016
outer loop
vertex 0.709999999999999 1.22975607337392 12.0
vertex 0.367523044045579 1.37161467333049 15.9999999999999
vertex 0.71 1.22975607337391 15.9999999999999
endloop
endfacet
facet normal 0.5 0.866025403784439 2.43287010744715e-016
outer loop
vertex 0.71 1.22975607337391 15.9999999999999
vertex 1.0040916292849 1.00409162928491 12.0
vertex 0.709999999999999 1.22975607337392 12.0
endloop
endfacet
facet normal 0.707106781186547 0.707106781186548 1.17547342208946e-016
outer loop
vertex 1.0040916292849 1.00409162928491 12.0
vertex 0.71 1.22975607337391 15.9999999999999
vertex 1.0040916292849 1.00409162928491 15.9999999999999
endloop
endfacet
facet normal 0.866025403784439 0.5 -1.62029834421943e-017
outer loop
vertex 1.2297560733739 0.710000000000013 12.0
vertex 1.0040916292849 1.00409162928491 15.9999999999999
vertex 1.2297560733739 0.710000000000012 15.9999999999999
endloop
endfacet
facet normal 0.707106781186547 0.707106781186548 1.17547342208946e-016
outer loop
vertex 1.0040916292849 1.00409162928491 15.9999999999999
vertex 1.2297560733739 0.710000000000013 12.0
vertex 1.0040916292849 1.00409162928491 12.0
endloop
endfacet
facet normal 0.965925826289068 0.258819045102521 -1.48849102548445e-016
outer loop
vertex 1.37161467333048 0.367523044045593 12.0
vertex 1.2297560733739 0.710000000000012 15.9999999999999
vertex 1.37161467333048 0.367523044045591 15.9999999999999
endloop
endfacet
facet normal 0.866025403784439 0.5 -1.62029834421944e-017
outer loop
vertex 1.2297560733739 0.710000000000012 15.9999999999999
vertex 1.37161467333048 0.367523044045593 12.0
vertex 1.2297560733739 0.710000000000013 12.0
endloop
endfacet
facet normal 1.0 2.04955527599879e-016 -2.71351401300792e-016
outer loop
vertex 1.42 1.34696654507439e-014 12.0
vertex 1.37161467333048 0.367523044045591 15.9999999999999
vertex 1.42 1.17193116632495e-014 15.9999999999999
endloop
endfacet
facet normal 0.965925826289068 0.258819045102521 -1.48849102548445e-016
outer loop
vertex 1.37161467333048 0.367523044045591 15.9999999999999
vertex 1.42 1.34696654507439e-014 12.0
vertex 1.37161467333048 0.367523044045593 12.0
endloop
endfacet
facet normal 0.965925826289068 -0.258819045102521 -3.75361550483884e-016
outer loop
vertex 1.37161467333048 -0.367523044045566 12.0
vertex 1.42 1.17193116632495e-014 15.9999999999999
vertex 1.37161467333048 -0.367523044045568 15.9999999999999
endloop
endfacet
facet normal 1.0 1.33666648434704e-016 -2.71351401300792e-016
outer loop
vertex 1.42 1.17193116632495e-014 15.9999999999999
vertex 1.37161467333048 -0.367523044045566 12.0
vertex 1.42 1.34696654507439e-014 12.0
endloop
endfacet
facet normal 0.866025403784439 -0.5 -4.5379143031579e-016
outer loop
vertex 1.2297560733739 -0.709999999999986 12.0
vertex 1.37161467333048 -0.367523044045568 15.9999999999999
vertex 1.2297560733739 -0.709999999999988 15.9999999999999
endloop
endfacet
facet normal 0.965925826289068 -0.258819045102521 -3.75361550483884e-016
outer loop
vertex 1.37161467333048 -0.367523044045568 15.9999999999999
vertex 1.2297560733739 -0.709999999999986 12.0
vertex 1.37161467333048 -0.367523044045566 12.0
endloop
endfacet
facet normal 0.707106781186548 -0.707106781186547 -5.01296174097471e-016
outer loop
vertex 1.0040916292849 -1.00409162928488 12.0
vertex 1.2297560733739 -0.709999999999988 15.9999999999999
vertex 1.0040916292849 -1.00409162928489 15.9999999999999
endloop
endfacet
facet normal 0.866025403784439 -0.5 -4.5379143031579e-016
outer loop
vertex 1.2297560733739 -0.709999999999988 15.9999999999999
vertex 1.0040916292849 -1.00409162928488 12.0
vertex 1.2297560733739 -0.709999999999986 12.0
endloop
endfacet
facet normal 0.707106781186548 -0.707106781186547 -5.01296174097471e-016
outer loop
vertex 1.0040916292849 -1.00409162928489 15.9999999999999
vertex 0.709999999999999 -1.22975607337389 12.0
vertex 1.0040916292849 -1.00409162928488 12.0
endloop
endfacet
facet normal 0.5 -0.866025403784439 -5.14638412045507e-016
outer loop
vertex 0.709999999999999 -1.22975607337389 12.0
vertex 1.0040916292849 -1.00409162928489 15.9999999999999
vertex 0.71 -1.22975607337389 15.9999999999999
endloop
endfacet
facet normal 0.5 -0.866025403784439 -5.14638412045507e-016
outer loop
vertex 0.71 -1.22975607337389 15.9999999999999
vertex 0.367523044045579 -1.37161467333046 12.0
vertex 0.709999999999999 -1.22975607337389 12.0
endloop
endfacet
facet normal 0.258819045102521 -0.965925826289068 -4.9290889269283e-016
outer loop
vertex 0.367523044045579 -1.37161467333046 12.0
vertex 0.71 -1.22975607337389 15.9999999999999
vertex 0.36752304404558 -1.37161467333047 15.9999999999999
endloop
endfacet
facet normal 0.258819045102521 -0.965925826289068 -4.9290889269283e-016
outer loop
vertex 0.36752304404558 -1.37161467333047 15.9999999999999
vertex -9.11505759724244e-016 -1.41999999999999 12.0
vertex 0.367523044045579 -1.37161467333046 12.0
endloop
endfacet
facet normal 3.38622176034582e-016 -1.0 -4.37588446873596e-016
outer loop
vertex -9.11505759724244e-016 -1.41999999999999 12.0
vertex 0.36752304404558 -1.37161467333047 15.9999999999999
vertex 1.73899845478924e-016 -1.41999999999999 15.9999999999999
endloop
endfacet
facet normal 3.83177725512817e-016 -1.0 -4.37588446873596e-016
outer loop
vertex 1.73899845478924e-016 -1.41999999999999 15.9999999999999
vertex -0.36752304404558 -1.37161467333046 12.0
vertex -9.11505759724244e-016 -1.41999999999999 12.0
endloop
endfacet
facet normal -0.25881904510252 -0.965925826289068 -3.52447071549026e-016
outer loop
vertex -0.36752304404558 -1.37161467333046 12.0
vertex 1.73899845478924e-016 -1.41999999999999 15.9999999999999
vertex -0.367523044045579 -1.37161467333047 15.9999999999999
endloop
endfacet
facet normal -0.25881904510252 -0.965925826289068 -3.52447071549026e-016
outer loop
vertex -0.367523044045579 -1.37161467333047 15.9999999999999
vertex -0.710000000000001 -1.22975607337389 12.0
vertex -0.36752304404558 -1.37161467333046 12.0
endloop
endfacet
facet normal -0.5 -0.866025403784439 -2.43287010744715e-016
outer loop
vertex -0.710000000000001 -1.22975607337389 12.0
vertex -0.367523044045579 -1.37161467333047 15.9999999999999
vertex -0.71 -1.22975607337389 15.9999999999999
endloop
endfacet
facet normal -0.5 -0.866025403784439 -2.43287010744715e-016
outer loop
vertex -0.71 -1.22975607337389 15.9999999999999
vertex -1.0040916292849 -1.00409162928488 12.0
vertex -0.710000000000001 -1.22975607337389 12.0
endloop
endfacet
facet normal -0.707106781186547 -0.707106781186548 -1.17547342208946e-016
outer loop
vertex -1.0040916292849 -1.00409162928488 12.0
vertex -0.71 -1.22975607337389 15.9999999999999
vertex -1.0040916292849 -1.00409162928489 15.9999999999999
endloop
endfacet
facet normal -0.866025403784438 -0.500000000000001 1.6202983442194e-017
outer loop
vertex -1.2297560733739 -0.709999999999989 15.9999999999999
vertex -1.0040916292849 -1.00409162928488 12.0
vertex -1.0040916292849 -1.00409162928489 15.9999999999999
endloop
endfacet
facet normal -0.707106781186547 -0.707106781186548 -1.17547342208946e-016
outer loop
vertex -1.0040916292849 -1.00409162928488 12.0
vertex -1.2297560733739 -0.709999999999989 15.9999999999999
vertex -1.2297560733739 -0.709999999999987 12.0
endloop
endfacet
facet normal -0.965925826289068 -0.258819045102521 1.48849102548445e-016
outer loop
vertex -1.37161467333048 -0.367523044045569 15.9999999999999
vertex -1.2297560733739 -0.709999999999987 12.0
vertex -1.2297560733739 -0.709999999999989 15.9999999999999
endloop
endfacet
facet normal -0.866025403784438 -0.5 1.6202983442194e-017
outer loop
vertex -1.2297560733739 -0.709999999999987 12.0
vertex -1.37161467333048 -0.367523044045569 15.9999999999999
vertex -1.37161467333048 -0.367523044045567 12.0
endloop
endfacet
facet normal -1.0 -5.07933264051874e-016 2.71351401300792e-016
outer loop
vertex -1.42 1.13715119722917e-014 15.9999999999999
vertex -1.37161467333048 -0.367523044045567 12.0
vertex -1.37161467333048 -0.367523044045569 15.9999999999999
endloop
endfacet
facet normal -0.965925826289068 -0.258819045102521 1.48849102548445e-016
outer loop
vertex -1.37161467333048 -0.367523044045567 12.0
vertex -1.42 1.13715119722917e-014 15.9999999999999
vertex -1.42 1.31218657597861e-014 12.0
endloop
endfacet
facet normal -0.965925826289068 0.25881904510252 3.75361550483883e-016
outer loop
vertex -1.37161467333048 0.36752304404559 15.9999999999999
vertex -1.42 1.31218657597861e-014 12.0
vertex -1.42 1.13715119722917e-014 15.9999999999999
endloop
endfacet
facet normal -1.0 -4.36644384886698e-016 2.71351401300792e-016
outer loop
vertex -1.42 1.31218657597861e-014 12.0
vertex -1.37161467333048 0.36752304404559 15.9999999999999
vertex -1.37161467333048 0.367523044045592 12.0
endloop
endfacet
facet normal -0.866025403784439 0.499999999999999 4.5379143031579e-016
outer loop
vertex -1.2297560733739 0.710000000000011 15.9999999999999
vertex -1.37161467333048 0.367523044045592 12.0
vertex -1.37161467333048 0.36752304404559 15.9999999999999
endloop
endfacet
facet normal -0.965925826289068 0.25881904510252 3.75361550483883e-016
outer loop
vertex -1.37161467333048 0.367523044045592 12.0
vertex -1.2297560733739 0.710000000000011 15.9999999999999
vertex -1.2297560733739 0.710000000000012 12.0
endloop
endfacet
facet normal -0.707106781186548 0.707106781186547 5.01296174097471e-016
outer loop
vertex -1.0040916292849 1.00409162928491 15.9999999999999
vertex -1.2297560733739 0.710000000000012 12.0
vertex -1.2297560733739 0.710000000000011 15.9999999999999
endloop
endfacet
facet normal -0.866025403784439 0.499999999999999 4.5379143031579e-016
outer loop
vertex -1.2297560733739 0.710000000000012 12.0
vertex -1.0040916292849 1.00409162928491 15.9999999999999
vertex -1.0040916292849 1.00409162928491 12.0
endloop
endfacet
facet normal -0.707106781186548 0.707106781186547 5.01296174097471e-016
outer loop
vertex -1.0040916292849 1.00409162928491 15.9999999999999
vertex -0.710000000000002 1.22975607337392 12.0
vertex -1.0040916292849 1.00409162928491 12.0
endloop
endfacet
facet normal -0.5 0.866025403784439 5.14638412045507e-016
outer loop
vertex -0.710000000000002 1.22975607337392 12.0
vertex -1.0040916292849 1.00409162928491 15.9999999999999
vertex -0.710000000000001 1.22975607337391 15.9999999999999
endloop
endfacet
facet normal -0.5 0.866025403784439 5.14638412045507e-016
outer loop
vertex -0.710000000000001 1.22975607337391 15.9999999999999
vertex -0.367523044045582 1.37161467333049 12.0
vertex -0.710000000000002 1.22975607337392 12.0
endloop
endfacet
facet normal -0.258819045102521 0.965925826289068 4.9290889269283e-016
outer loop
vertex -0.367523044045582 1.37161467333049 12.0
vertex -0.710000000000001 1.22975607337391 15.9999999999999
vertex -0.367523044045581 1.37161467333049 15.9999999999999
endloop
endfacet
facet normal -0.258819045102521 0.965925826289068 4.9290889269283e-016
outer loop
vertex -0.367523044045581 1.37161467333049 15.9999999999999
vertex -1.08540560520317e-015 1.42000000000001 12.0
vertex -0.367523044045582 1.37161467333049 12.0
endloop
endfacet
facet normal -2.85155516660701e-016 1.0 4.37588446873596e-016
outer loop
vertex -1.08540560520317e-015 1.42000000000001 12.0
vertex -0.367523044045581 1.37161467333049 15.9999999999999
vertex 0.0 1.42000000000001 15.9999999999999
endloop
endfacet
facet normal 1.79536636567928e-015 -1.79536636567928e-015 -1.0
outer loop
vertex -1.49718503074806 0.401169519908874 5.19999999999996
vertex -1.49718503074806 -0.40116951990894 5.19999999999997
vertex -1.55 -3.32972817263884e-014 5.19999999999996
endloop
endfacet
facet normal 1.79536636567928e-015 -1.79536636567928e-015 -1.0
outer loop
vertex -1.49718503074806 -0.40116951990894 5.19999999999997
vertex -1.49718503074806 0.401169519908874 5.19999999999996
vertex -1.34233937586588 -0.775000000000033 5.19999999999997
endloop
endfacet
facet normal 1.79536636567928e-015 -1.79536636567928e-015 -1.0
outer loop
vertex -1.34233937586588 -0.775000000000033 5.19999999999997
vertex -1.49718503074806 0.401169519908874 5.19999999999996
vertex -1.34233937586588 0.774999999999967 5.19999999999996
endloop
endfacet
facet normal 1.79536636567928e-015 -1.79536636567928e-015 -1.0
outer loop
vertex -1.34233937586588 -0.775000000000033 5.19999999999997
vertex -1.34233937586588 0.774999999999967 5.19999999999996
vertex -1.09601551083915 -1.09601551083918 5.19999999999997
endloop
endfacet
facet normal 1.79536636567928e-015 -1.79536636567928e-015 -1.0
outer loop
vertex -1.09601551083915 -1.09601551083918 5.19999999999997
vertex -1.34233937586588 0.774999999999967 5.19999999999996
vertex -1.09601551083915 1.09601551083912 5.19999999999996
endloop
endfacet
facet normal 1.79536636567928e-015 -1.79536636567928e-015 -1.0
outer loop
vertex -1.09601551083915 -1.09601551083918 5.19999999999997
vertex -1.09601551083915 1.09601551083912 5.19999999999996
vertex -0.775000000000001 -1.34233937586591 5.19999999999997
endloop
endfacet
facet normal 1.79536636567928e-015 -1.79536636567928e-015 -1.0
outer loop
vertex -0.775000000000001 -1.34233937586591 5.19999999999997
vertex -1.09601551083915 1.09601551083912 5.19999999999996
vertex -0.775 1.34233937586585 5.19999999999996
endloop
endfacet
facet normal 1.79536636567928e-015 -1.79536636567928e-015 -1.0
outer loop
vertex -0.775000000000001 -1.34233937586591 5.19999999999997
vertex -0.775 1.34233937586585 5.19999999999996
vertex -0.401169519908908 -1.49718503074809 5.19999999999997
endloop
endfacet
facet normal 1.79536636567928e-015 -1.79536636567928e-015 -1.0
outer loop
vertex -0.401169519908908 -1.49718503074809 5.19999999999997
vertex -0.775 1.34233937586585 5.19999999999996
vertex -0.401169519908907 1.49718503074802 5.19999999999996
endloop
endfacet
facet normal 1.79536636567928e-015 -1.79536636567928e-015 -1.0
outer loop
vertex -0.401169519908908 -1.49718503074809 5.19999999999997
vertex -0.401169519908907 1.49718503074802 5.19999999999996
vertex -2.8473038080176e-016 -1.55000000000003 5.19999999999997
endloop
endfacet
facet normal 1.79536636567928e-015 -1.79536636567928e-015 -1.0
outer loop
vertex -2.8473038080176e-016 -1.55000000000003 5.19999999999997
vertex -0.401169519908907 1.49718503074802 5.19999999999996
vertex 9.491012693392e-017 1.54999999999997 5.19999999999996
endloop
endfacet
facet normal 1.79536636567928e-015 -1.79536636567928e-015 -1.0
outer loop
vertex -2.8473038080176e-016 -1.55000000000003 5.19999999999997
vertex 9.491012693392e-017 1.54999999999997 5.19999999999996
vertex 0.401169519908906 -1.49718503074809 5.19999999999997
endloop
endfacet
facet normal 1.79536636567928e-015 -1.79536636567928e-015 -1.0
outer loop
vertex 0.401169519908906 -1.49718503074809 5.19999999999997
vertex 9.491012693392e-017 1.54999999999997 5.19999999999996
vertex 0.401169519908907 1.49718503074802 5.19999999999997
endloop
endfacet
facet normal 1.79536636567928e-015 -1.79536636567928e-015 -1.0
outer loop
vertex 0.401169519908906 -1.49718503074809 5.19999999999997
vertex 0.401169519908907 1.49718503074802 5.19999999999997
vertex 0.774999999999999 -1.34233937586591 5.19999999999997
endloop
endfacet
facet normal 1.79536636567928e-015 -1.79536636567928e-015 -1.0
outer loop
vertex 0.774999999999999 -1.34233937586591 5.19999999999997
vertex 0.401169519908907 1.49718503074802 5.19999999999997
vertex 0.775 1.34233937586585 5.19999999999997
endloop
endfacet
facet normal 1.79536636567928e-015 -1.79536636567928e-015 -1.0
outer loop
vertex 0.774999999999999 -1.34233937586591 5.19999999999997
vertex 0.775 1.34233937586585 5.19999999999997
vertex 1.09601551083915 -1.09601551083918 5.19999999999997
endloop
endfacet
facet normal 1.79536636567928e-015 -1.79536636567928e-015 -1.0
outer loop
vertex 1.09601551083915 -1.09601551083918 5.19999999999997
vertex 0.775 1.34233937586585 5.19999999999997
vertex 1.09601551083915 1.09601551083911 5.19999999999997
endloop
endfacet
facet normal 1.79536636567928e-015 -1.79536636567928e-015 -1.0
outer loop
vertex 1.09601551083915 -1.09601551083918 5.19999999999997
vertex 1.09601551083915 1.09601551083911 5.19999999999997
vertex 1.34233937586588 -0.775000000000034 5.19999999999997
endloop
endfacet
facet normal 1.79536636567928e-015 -1.79536636567928e-015 -1.0
outer loop
vertex 1.34233937586588 -0.775000000000034 5.19999999999997
vertex 1.09601551083915 1.09601551083911 5.19999999999997
vertex 1.34233937586588 0.774999999999966 5.19999999999997
endloop
endfacet
facet normal 1.79536636567928e-015 -1.79536636567928e-015 -1.0
outer loop
vertex 1.34233937586588 -0.775000000000034 5.19999999999997
vertex 1.34233937586588 0.774999999999966 5.19999999999997
vertex 1.49718503074806 -0.401169519908942 5.19999999999997
endloop
endfacet
facet normal 1.79536636567928e-015 -1.79536636567928e-015 -1.0
outer loop
vertex 1.49718503074806 -0.401169519908942 5.19999999999997
vertex 1.34233937586588 0.774999999999966 5.19999999999997
vertex 1.49718503074806 0.401169519908874 5.19999999999997
endloop
endfacet
facet normal 1.79536636567928e-015 -1.79536636567928e-015 -1.0
outer loop
vertex 1.49718503074806 -0.401169519908942 5.19999999999997
vertex 1.49718503074806 0.401169519908874 5.19999999999997
vertex 1.55 -3.34871019802563e-014 5.19999999999997
endloop
endfacet
facet normal -0.965925826289068 -0.258819045102521 -1.37171203478351e-015
outer loop
vertex 1.49718503074806 0.401169519908874 5.19999999999997
vertex 1.34233937586589 0.774999999999957 -2.89046564461159e-014
vertex 1.49718503074807 0.401169519908864 -2.89046564461159e-014
endloop
endfacet
facet normal -0.866025403784439 -0.5 -7.46768711571449e-016
outer loop
vertex 1.34233937586589 0.774999999999957 -2.89046564461159e-014
vertex 1.49718503074806 0.401169519908874 5.19999999999997
vertex 1.34233937586588 0.774999999999966 5.19999999999997
endloop
endfacet
facet normal -0.866025403784439 -0.5 -7.4676871157145e-016
outer loop
vertex 1.34233937586588 0.774999999999966 5.19999999999997
vertex 1.09601551083916 1.09601551083911 -3.17246229286638e-014
vertex 1.34233937586589 0.774999999999957 -2.89046564461159e-014
endloop
endfacet
facet normal -0.707106781186547 -0.707106781186547 -7.09343347594407e-017
outer loop
vertex 1.09601551083916 1.09601551083911 -3.17246229286638e-014
vertex 1.34233937586588 0.774999999999966 5.19999999999997
vertex 1.09601551083915 1.09601551083911 5.19999999999997
endloop
endfacet
facet normal -0.707106781186547 -0.707106781186548 -7.09343347594407e-017
outer loop
vertex 1.09601551083915 1.09601551083911 5.19999999999997
vertex 0.77500000000001 1.34233937586584 -3.17246229286638e-014
vertex 1.09601551083916 1.09601551083911 -3.17246229286638e-014
endloop
endfacet
facet normal -0.5 -0.866025403784439 6.09734099741892e-016
outer loop
vertex 0.77500000000001 1.34233937586584 -3.17246229286638e-014
vertex 1.09601551083915 1.09601551083911 5.19999999999997
vertex 0.775 1.34233937586585 5.19999999999997
endloop
endfacet
facet normal -0.5 -0.866025403784439 6.09734099741893e-016
outer loop
vertex 0.775 1.34233937586585 5.19999999999997
vertex 0.401169519908918 1.49718503074801 -3.17246229286638e-014
vertex 0.77500000000001 1.34233937586584 -3.17246229286638e-014
endloop
endfacet
facet normal -0.258819045102521 -0.965925826289068 1.24885016297906e-015
outer loop
vertex 0.401169519908918 1.49718503074801 -3.17246229286638e-014
vertex 0.775 1.34233937586585 5.19999999999997
vertex 0.401169519908907 1.49718503074802 5.19999999999997
endloop
endfacet
facet normal -0.258819045102521 -0.965925826289068 1.24885016297906e-015
outer loop
vertex 0.401169519908918 1.49718503074801 -3.17246229286638e-014
vertex 9.491012693392e-017 1.54999999999997 5.19999999999996
vertex 9.99142246530315e-015 1.54999999999996 -3.45445894112117e-014
endloop
endfacet
facet normal -1.42577758330351e-016 -1.0 1.80285915143168e-015
outer loop
vertex 9.491012693392e-017 1.54999999999997 5.19999999999996
vertex 0.401169519908918 1.49718503074801 -3.17246229286638e-014
vertex 0.401169519908907 1.49718503074802 5.19999999999997
endloop
endfacet
facet normal -1.42577758330351e-016 -1.0 1.80285915143168e-015
outer loop
vertex 9.491012693392e-017 1.54999999999997 5.19999999999996
vertex -0.401169519908897 1.49718503074801 -3.45445894112117e-014
vertex 9.99142246530315e-015 1.54999999999996 -3.45445894112117e-014
endloop
endfacet
facet normal 0.258819045102521 -0.965925826289068 2.23400626807984e-015
outer loop
vertex -0.401169519908897 1.49718503074801 -3.45445894112117e-014
vertex 9.491012693392e-017 1.54999999999997 5.19999999999996
vertex -0.401169519908907 1.49718503074802 5.19999999999996
endloop
endfacet
facet normal 0.258819045102521 -0.965925826289068 2.23400626807985e-015
outer loop
vertex -0.401169519908907 1.49718503074802 5.19999999999996
vertex -0.774999999999989 1.34233937586584 -3.45445894112117e-014
vertex -0.401169519908897 1.49718503074801 -3.45445894112117e-014
endloop
endfacet
facet normal 0.5 -0.866025403784439 2.51290954942829e-015
outer loop
vertex -0.774999999999989 1.34233937586584 -3.45445894112117e-014
vertex -0.401169519908907 1.49718503074802 5.19999999999996
vertex -0.775 1.34233937586585 5.19999999999996
endloop
endfacet
facet normal 0.5 -0.866025403784439 2.51290954942829e-015
outer loop
vertex -0.775 1.34233937586585 5.19999999999996
vertex -1.09601551083914 1.09601551083911 -3.45445894112117e-014
vertex -0.774999999999989 1.34233937586584 -3.45445894112117e-014
endloop
endfacet
facet normal 0.707106781186547 -0.707106781186548 2.62056219776257e-015
outer loop
vertex -1.09601551083914 1.09601551083911 -3.45445894112117e-014
vertex -0.775 1.34233937586585 5.19999999999996
vertex -1.09601551083915 1.09601551083912 5.19999999999996
endloop
endfacet
facet normal 0.707106781186547 -0.707106781186548 2.62056219776257e-015
outer loop
vertex -1.09601551083914 1.09601551083911 -3.45445894112117e-014
vertex -1.34233937586588 0.774999999999967 5.19999999999996
vertex -1.34233937586587 0.774999999999958 -3.45445894112117e-014
endloop
endfacet
facet normal 0.866025403784438 -0.5 2.54962786300313e-015
outer loop
vertex -1.34233937586588 0.774999999999967 5.19999999999996
vertex -1.09601551083914 1.09601551083911 -3.45445894112117e-014
vertex -1.09601551083915 1.09601551083912 5.19999999999996
endloop
endfacet
facet normal 0.866025403784438 -0.5 2.54962786300313e-015
outer loop
vertex -1.34233937586587 0.774999999999958 -3.45445894112117e-014
vertex -1.49718503074806 0.401169519908874 5.19999999999996
vertex -1.49718503074805 0.401169519908865 -3.45445894112117e-014
endloop
endfacet
facet normal 0.965925826289068 -0.258819045102521 2.30494060283929e-015
outer loop
vertex -1.49718503074806 0.401169519908874 5.19999999999996
vertex -1.34233937586587 0.774999999999958 -3.45445894112117e-014
vertex -1.34233937586588 0.774999999999967 5.19999999999996
endloop
endfacet
facet normal 0.965925826289068 -0.258819045102521 2.30494060283929e-015
outer loop
vertex -1.49718503074805 0.401169519908865 -3.45445894112117e-014
vertex -1.55 -3.32972817263884e-014 5.19999999999996
vertex -1.54999999999999 -4.26721493138331e-014 -3.45445894112117e-014
endloop
endfacet
facet normal 1.0 -3.02977736451995e-016 1.90317544968639e-015
outer loop
vertex -1.55 -3.32972817263884e-014 5.19999999999996
vertex -1.49718503074805 0.401169519908865 -3.45445894112117e-014
vertex -1.49718503074806 0.401169519908874 5.19999999999996
endloop
endfacet
facet normal 1.0 -4.45555494782346e-016 1.90317544968639e-015
outer loop
vertex -1.54999999999999 -4.26721493138331e-014 -3.45445894112117e-014
vertex -1.49718503074806 -0.40116951990894 5.19999999999997
vertex -1.49718503074805 -0.401169519908949 -3.17246229286638e-014
endloop
endfacet
facet normal 0.965925826289068 0.25881904510252 1.37171203478351e-015
outer loop
vertex -1.49718503074806 -0.40116951990894 5.19999999999997
vertex -1.54999999999999 -4.26721493138331e-014 -3.45445894112117e-014
vertex -1.55 -3.32972817263884e-014 5.19999999999996
endloop
endfacet
facet normal 0.965925826289068 0.25881904510252 1.37171203478351e-015
outer loop
vertex -1.49718503074805 -0.401169519908949 -3.17246229286638e-014
vertex -1.34233937586588 -0.775000000000033 5.19999999999997
vertex -1.34233937586587 -0.775000000000042 -3.17246229286638e-014
endloop
endfacet
facet normal 0.866025403784439 0.5 7.46768711571451e-016
outer loop
vertex -1.34233937586588 -0.775000000000033 5.19999999999997
vertex -1.49718503074805 -0.401169519908949 -3.17246229286638e-014
vertex -1.49718503074806 -0.40116951990894 5.19999999999997
endloop
endfacet
facet normal 0.866025403784439 0.5 7.4676871157145e-016
outer loop
vertex -1.34233937586587 -0.775000000000042 -3.17246229286638e-014
vertex -1.09601551083915 -1.09601551083918 5.19999999999997
vertex -1.09601551083914 -1.09601551083919 -3.17246229286638e-014
endloop
endfacet
facet normal 0.707106781186548 0.707106781186547 7.0934334759442e-017
outer loop
vertex -1.09601551083915 -1.09601551083918 5.19999999999997
vertex -1.34233937586587 -0.775000000000042 -3.17246229286638e-014
vertex -1.34233937586588 -0.775000000000033 5.19999999999997
endloop
endfacet
facet normal 0.707106781186548 0.707106781186547 7.0934334759442e-017
outer loop
vertex -1.09601551083915 -1.09601551083918 5.19999999999997
vertex -0.77499999999999 -1.34233937586592 -2.89046564461159e-014
vertex -1.09601551083914 -1.09601551083919 -3.17246229286638e-014
endloop
endfacet
facet normal 0.500000000000001 0.866025403784438 -6.09734099741892e-016
outer loop
vertex -0.77499999999999 -1.34233937586592 -2.89046564461159e-014
vertex -1.09601551083915 -1.09601551083918 5.19999999999997
vertex -0.775000000000001 -1.34233937586591 5.19999999999997
endloop
endfacet
facet normal 0.5 0.866025403784438 -6.09734099741892e-016
outer loop
vertex -0.775000000000001 -1.34233937586591 5.19999999999997
vertex -0.401169519908898 -1.4971850307481 -2.89046564461159e-014
vertex -0.77499999999999 -1.34233937586592 -2.89046564461159e-014
endloop
endfacet
facet normal 0.258819045102521 0.965925826289068 -1.24885016297906e-015
outer loop
vertex -0.401169519908898 -1.4971850307481 -2.89046564461159e-014
vertex -0.775000000000001 -1.34233937586591 5.19999999999997
vertex -0.401169519908908 -1.49718503074809 5.19999999999997
endloop
endfacet
facet normal 0.258819045102521 0.965925826289068 -1.24885016297906e-015
outer loop
vertex -0.401169519908908 -1.49718503074809 5.19999999999997
vertex 9.61178195756747e-015 -1.55000000000004 -2.89046564461159e-014
vertex -0.401169519908898 -1.4971850307481 -2.89046564461159e-014
endloop
endfacet
facet normal 5.52488813530109e-016 1.0 -1.80285915143168e-015
outer loop
vertex 9.61178195756747e-015 -1.55000000000004 -2.89046564461159e-014
vertex -0.401169519908908 -1.49718503074809 5.19999999999997
vertex -2.8473038080176e-016 -1.55000000000003 5.19999999999997
endloop
endfacet
facet normal 4.27733274991051e-016 1.0 -1.80285915143168e-015
outer loop
vertex -2.8473038080176e-016 -1.55000000000003 5.19999999999997
vertex 0.401169519908917 -1.4971850307481 -2.60846899635681e-014
vertex 9.61178195756747e-015 -1.55000000000004 -2.89046564461159e-014
endloop
endfacet
facet normal -0.25881904510252 0.965925826289068 -2.23400626807984e-015
outer loop
vertex 0.401169519908917 -1.4971850307481 -2.60846899635681e-014
vertex -2.8473038080176e-016 -1.55000000000003 5.19999999999997
vertex 0.401169519908906 -1.49718503074809 5.19999999999997
endloop
endfacet
facet normal -0.25881904510252 0.965925826289069 -2.23400626807984e-015
outer loop
vertex 0.401169519908906 -1.49718503074809 5.19999999999997
vertex 0.775000000000009 -1.34233937586592 -2.60846899635681e-014
vertex 0.401169519908917 -1.4971850307481 -2.60846899635681e-014
endloop
endfacet
facet normal -0.5 0.866025403784439 -2.51290954942829e-015
outer loop
vertex 0.775000000000009 -1.34233937586592 -2.60846899635681e-014
vertex 0.401169519908906 -1.49718503074809 5.19999999999997
vertex 0.774999999999999 -1.34233937586591 5.19999999999997
endloop
endfacet
facet normal -0.5 0.866025403784439 -2.51290954942829e-015
outer loop
vertex 0.774999999999999 -1.34233937586591 5.19999999999997
vertex 1.09601551083916 -1.09601551083919 -2.60846899635681e-014
vertex 0.775000000000009 -1.34233937586592 -2.60846899635681e-014
endloop
endfacet
facet normal -0.707106781186547 0.707106781186548 -2.62056219776257e-015
outer loop
vertex 1.09601551083916 -1.09601551083919 -2.60846899635681e-014
vertex 0.774999999999999 -1.34233937586591 5.19999999999997
vertex 1.09601551083915 -1.09601551083918 5.19999999999997
endloop
endfacet
facet normal -0.707106781186547 0.707106781186548 -2.62056219776257e-015
outer loop
vertex 1.09601551083915 -1.09601551083918 5.19999999999997
vertex 1.34233937586589 -0.775000000000043 -2.60846899635681e-014
vertex 1.09601551083916 -1.09601551083919 -2.60846899635681e-014
endloop
endfacet
facet normal -0.866025403784438 0.500000000000001 -2.54962786300313e-015
outer loop
vertex 1.34233937586589 -0.775000000000043 -2.60846899635681e-014
vertex 1.09601551083915 -1.09601551083918 5.19999999999997
vertex 1.34233937586588 -0.775000000000034 5.19999999999997
endloop
endfacet
facet normal -0.866025403784438 0.5 -2.54962786300313e-015
outer loop
vertex 1.34233937586588 -0.775000000000034 5.19999999999997
vertex 1.49718503074807 -0.401169519908951 -2.60846899635681e-014
vertex 1.34233937586589 -0.775000000000043 -2.60846899635681e-014
endloop
endfacet
facet normal -0.965925826289068 0.258819045102521 -2.30494060283929e-015
outer loop
vertex 1.49718503074807 -0.401169519908951 -2.60846899635681e-014
vertex 1.34233937586588 -0.775000000000034 5.19999999999997
vertex 1.49718503074806 -0.401169519908942 5.19999999999997
endloop
endfacet
facet normal -0.965925826289068 0.258819045102521 -2.30494060283929e-015
outer loop
vertex 1.49718503074806 -0.401169519908942 5.19999999999997
vertex 1.55000000000001 -4.2861969567701e-014 -2.89046564461159e-014
vertex 1.49718503074807 -0.401169519908951 -2.60846899635681e-014
endloop
endfacet
facet normal -1.0 8.01999890608223e-017 -1.90317544968639e-015
outer loop
vertex 1.55000000000001 -4.2861969567701e-014 -2.89046564461159e-014
vertex 1.49718503074806 -0.401169519908942 5.19999999999997
vertex 1.55 -3.34871019802563e-014 5.19999999999997
endloop
endfacet
facet normal -1.0 2.13866637495526e-016 -1.90317544968639e-015
outer loop
vertex 1.55 -3.34871019802563e-014 5.19999999999997
vertex 1.49718503074807 0.401169519908864 -2.89046564461159e-014
vertex 1.55000000000001 -4.2861969567701e-014 -2.89046564461159e-014
endloop
endfacet
facet normal -0.965925826289068 -0.258819045102521 -1.37171203478351e-015
outer loop
vertex 1.49718503074807 0.401169519908864 -2.89046564461159e-014
vertex 1.55 -3.34871019802563e-014 5.19999999999997
vertex 1.49718503074806 0.401169519908874 5.19999999999997
endloop
endfacet
endsolid standoff
