<?xml version="1.0" encoding="UTF-8" standalone="no"?>
<!-- Created with Inkscape (http://www.inkscape.org/) -->

<svg
   xmlns:dc="http://purl.org/dc/elements/1.1/"
   xmlns:cc="http://creativecommons.org/ns#"
   xmlns:rdf="http://www.w3.org/1999/02/22-rdf-syntax-ns#"
   xmlns:svg="http://www.w3.org/2000/svg"
   xmlns="http://www.w3.org/2000/svg"
   xmlns:sodipodi="http://sodipodi.sourceforge.net/DTD/sodipodi-0.dtd"
   xmlns:inkscape="http://www.inkscape.org/namespaces/inkscape"
   width="48px"
   height="48px"
   id="svg3920"
   version="1.1"
   inkscape:version="0.48.4 r9939"
   sodipodi:docname="New document 7">
  <defs
     id="defs3922" />
  <sodipodi:namedview
     id="base"
     pagecolor="#ffffff"
     bordercolor="#666666"
     borderopacity="1.0"
     inkscape:pageopacity="0.0"
     inkscape:pageshadow="2"
     inkscape:zoom="4.9497475"
     inkscape:cx="74.523944"
     inkscape:cy="21.165318"
     inkscape:current-layer="layer1"
     showgrid="true"
     inkscape:grid-bbox="true"
     inkscape:document-units="px"
     inkscape:window-width="1920"
     inkscape:window-height="1018"
     inkscape:window-x="-2"
     inkscape:window-y="-3"
     inkscape:window-maximized="1" />
  <metadata
     id="metadata3925">
    <rdf:RDF>
      <cc:Work
         rdf:about="">
        <dc:format>image/svg+xml</dc:format>
        <dc:type
           rdf:resource="http://purl.org/dc/dcmitype/StillImage" />
        <dc:title></dc:title>
      </cc:Work>
    </rdf:RDF>
  </metadata>
  <g
     id="layer1"
     inkscape:label="Layer 1"
     inkscape:groupmode="layer">
    <path
       sodipodi:type="arc"
       style="fill:#64c5fc;fill-opacity:1;stroke:#000000;stroke-width:0.001;stroke-linecap:square;stroke-miterlimit:4;stroke-opacity:1;stroke-dasharray:none;display:inline"
       id="path5553"
       sodipodi:cx="365.77231"
       sodipodi:cy="144.63266"
       sodipodi:rx="2.6811132"
       sodipodi:ry="2.1677086"
       d="m 368.45342,144.63266 a 2.6811132,2.1677086 0 1 1 -5.36222,0 2.6811132,2.1677086 0 1 1 5.36222,0 z"
       transform="matrix(0.58503171,0,0,0.87310429,-189.31746,-105.79916)" />
    <path
       style="fill:#65e266;fill-opacity:1;stroke:#000000;stroke-width:0.00003569;stroke-linecap:square;stroke-miterlimit:4;stroke-opacity:1;stroke-dasharray:none;display:inline"
       d="m 37.308271,41.71786 c -0.839221,-0.71229 -2.694625,-2.628642 -4.476504,-3.179069 -0.334649,-0.09719 -0.406357,-0.104341 -1.027228,-0.102417 -0.613171,0.0016 -0.693847,0.01021 -0.991874,0.102464 -0.885491,0.27405 -1.668885,0.793115 -2.853183,1.890453 -0.959856,0.889372 -1.226735,1.116549 -1.361147,1.158655 -1.183735,0.370749 -2.482032,0.34097 -3.537551,-0.08115 -0.866164,-0.346411 -1.562228,-0.849798 -2.804766,-2.028413 -0.80598,-0.764516 -1.197607,-1.05224 -1.868416,-1.372744 -1.131854,-0.540782 -2.193828,-0.602881 -3.19133,-0.186597 -0.583551,0.243511 -1.17028,0.651988 -2.164109,1.506624 C 11.406997,40.823199 10.957897,41.104027 9.9258385,41.3681 8.0600613,41.845494 6.5831541,41.634296 5.341073,40.712479 5.0394839,40.488658 4.4122239,39.772315 4.2117918,39.422841 c -0.310014,-0.54057 -0.496136,-1.066635 -0.556413,-1.572707 -0.02288,-0.192069 -0.02387,-0.337573 -0.0029,-0.421003 0.01937,-0.07672 0.02434,-0.532904 0.01252,-1.144837 -0.03733,-1.93047 0.08752,-5.198077 0.25615,-6.705129 0.156257,-1.396495 0.303561,-2.123798 0.6179691,-3.051118 0.7800281,-2.30061 2.1604282,-4.331722 3.7539514,-5.523576 0.6934321,-0.518637 1.5459692,-0.929498 2.3194247,-1.117799 1.054643,-0.256749 2.242113,-0.216542 3.389617,0.114745 0.383501,0.110722 1.097268,0.382476 1.282624,0.488352 0.696551,0.397836 1.891349,1.320287 2.5417,1.962323 0.149785,0.147872 0.319052,0.306893 0.376151,0.353377 0.272894,0.222205 0.791466,0.332317 1.806397,0.383585 0.529303,0.02676 0.75289,0.05139 0.77285,0.08555 0.01544,0.02629 0.01836,0.691894 0.0066,1.47896 -0.03656,2.429558 0.08138,3.098443 0.600167,3.403467 0.166084,0.09764 0.551334,0.140065 0.881514,0.09709 0.14115,-0.01845 0.361508,-0.04505 0.489689,-0.0593 0.23004,-0.02565 0.234012,-0.02787 0.307897,-0.181191 0.154197,-0.32002 0.355997,-1.437304 0.395663,-2.190664 0.0272,-0.517156 0.07942,-0.658314 0.317467,-0.858712 0.379059,-0.319071 0.97905,-0.524196 1.34817,-0.460901 0.120505,0.02059 0.192324,0.0608 0.272203,0.152139 0.134698,0.154024 0.165401,0.28599 0.11937,0.513055 -0.03076,0.151681 -0.02206,0.247431 0.06193,0.681087 0.316699,1.635509 0.601616,2.334735 1.060357,2.602356 0.648736,0.378437 1.740996,7.66e-4 2.010972,-0.694135 0.06294,-0.162172 0.07662,-0.260122 0.07311,-0.52384 -0.0058,-0.421019 -0.08631,-0.699835 -0.508957,-1.75867 -0.381722,-0.956308 -0.465544,-1.239565 -0.471934,-1.594836 -0.0078,-0.431684 -0.0206,-0.419419 0.379411,-0.362658 0.846817,0.120153 1.18737,0.142323 1.428742,0.09304 0.269911,-0.0551 1.118154,-0.516754 1.533784,-0.834636 0.298225,-0.228087 0.724859,-0.723826 1.188357,-1.380866 0.908496,-1.287825 1.414555,-1.801283 2.237395,-2.27011 2.333635,-1.329647 5.189964,0.172749 7.907215,4.159091 0.724461,1.062825 1.253184,2.224686 1.693175,3.720716 0.633058,2.152492 0.95562,4.523206 0.955381,7.021649 -3.4e-4,2.997317 -0.511934,5.452767 -1.482981,7.117057 -1.925557,2.239208 -5.67783,1.245885 -6.278258,0.57407 z"
       id="path3770"
       inkscape:connector-curvature="0"
       sodipodi:nodetypes="ccccsccsscssccsccssssscscccccccccccccccccsccssssssccc" />
    <path
       style="fill:#ffbb00;fill-opacity:1;stroke:#000000;stroke-width:0.00003754;stroke-linecap:square;stroke-miterlimit:4;stroke-opacity:1;stroke-dasharray:none;display:inline"
       d="m 26.948753,28.821242 c -0.24346,-0.0707 -0.380042,-0.166681 -0.548151,-0.385545 -0.251974,-0.328027 -0.451932,-0.912451 -0.650492,-1.901168 -0.16894,-0.841258 -0.225617,-1.217805 -0.200198,-1.330124 0.07322,-0.323593 -0.0017,-0.632145 -0.191826,-0.789461 -0.141425,-0.117049 -0.689261,-0.10106 -0.979063,0.02856 -0.332946,0.148905 -0.527639,0.285563 -0.703705,0.493938 -0.190691,0.225689 -0.218142,0.323157 -0.24717,0.877722 -0.04517,0.863012 -0.239782,2.051861 -0.393762,2.405454 l -0.07486,0.171895 -0.283103,0.03837 c -0.155713,0.0212 -0.470834,0.04013 -0.700272,0.04214 -0.367388,0.0044 -0.433093,-0.0061 -0.550655,-0.08726 -0.524873,-0.358359 -0.642084,-1.101518 -0.60005,-3.804527 0.01323,-0.851824 0.011,-1.55427 -0.0053,-1.583472 -0.01597,-0.029 -0.02147,-1.200842 -0.01223,-2.621153 0.01498,-2.30683 0.02223,-2.573791 0.0709,-2.618824 0.02984,-0.02769 0.101737,-0.192291 0.159808,-0.366042 0.196677,-0.58848 0.568394,-1.065273 1.142608,-1.465588 0.570418,-0.397662 1.005389,-0.550501 1.680319,-0.590399 1.450298,-0.08568 3.077893,0.691275 3.764645,1.797278 0.308474,0.496812 0.401963,0.878064 0.607239,2.476376 0.282173,2.197025 0.160299,3.324606 -0.381529,3.530012 -0.139266,0.05283 -0.154829,0.116603 -0.14317,0.587043 0.0097,0.392528 0.09484,0.706845 0.487163,1.798996 0.191013,0.531743 0.380657,1.109034 0.421434,1.282874 0.219885,0.937456 -0.01761,1.555741 -0.73432,1.911436 -0.268378,0.133206 -0.673379,0.17717 -0.934449,0.10149 l 0,0 z m -1.841405,-6.932464 c 0.321843,-0.09606 0.570136,-0.263939 0.774938,-0.524137 0.230948,-0.293403 0.336418,-0.569862 0.357795,-0.937841 0.05557,-0.956433 -0.637815,-1.703551 -1.577387,-1.699635 -0.359438,8.48e-4 -0.520228,0.0446 -0.813481,0.21839 -0.215332,0.127572 -0.56234,0.543245 -0.648526,0.776872 -0.274058,0.742922 -0.0041,1.584767 0.636761,1.985503 0.387456,0.242282 0.845353,0.307483 1.2699,0.180848 z"
       id="path3772"
       inkscape:connector-curvature="0" />
    <path
       sodipodi:type="arc"
       style="fill:none;stroke:#000000;stroke-width:0.01;stroke-linecap:square;stroke-miterlimit:4;stroke-opacity:1;stroke-dasharray:none;display:inline"
       id="path3776"
       sodipodi:cx="345.23611"
       sodipodi:cy="131.2271"
       sodipodi:rx="5.0770016"
       sodipodi:ry="4.7917767"
       d="m 350.31312,131.2271 a 5.0770016,4.7917767 0 1 1 -10.15401,0 5.0770016,4.7917767 0 1 1 10.15401,0 z"
       transform="matrix(1.1024026,0,0,1.2594915,-367.5767,-153.53259)" />
    <path
       style="fill:none;stroke:#000000;stroke-width:0.01178332;stroke-linecap:butt;stroke-linejoin:miter;stroke-miterlimit:4;stroke-opacity:1;stroke-dasharray:none;display:inline"
       d="m 9.9310856,6.7175429 c 0,0 3.7103034,1.5806168 3.4587564,5.4603881 -0.251545,3.879772 -2.563724,5.370828 -3.129698,4.796054"
       id="path3780"
       inkscape:connector-curvature="0"
       sodipodi:nodetypes="csc" />
    <path
       style="fill:#000000;fill-opacity:1;stroke:#000000;stroke-width:0.00018411;stroke-linecap:square;stroke-miterlimit:4;stroke-opacity:1;stroke-dasharray:none;display:inline"
       d="m 10.468121,17.062788 c -0.04057,-0.0089 -0.102512,-0.03324 -0.137799,-0.05336 -0.03527,-0.02027 -0.110592,-0.06275 -0.167444,-0.09422 C 10.012997,16.831728 9.5901276,16.505428 9.3705276,16.303733 9.1277767,16.080775 8.7752735,15.67794 8.5808083,15.401308 8.0412916,14.633786 7.6809838,13.761538 7.5280804,12.852861 7.4502564,12.390323 7.4413064,12.27278 7.4424184,11.731057 7.4435184,11.13085 7.4721724,10.857603 7.5869478,10.345767 7.9027399,8.9367765 8.6647226,7.7123349 9.7530461,6.8649695 l 0.171024,-0.1331204 0.1796919,0.089891 c 0.868418,0.4338719 1.794413,1.2301654 2.344995,2.0165764 0.679246,0.97014 0.991481,2.0769635 0.926053,3.2826955 -0.08918,1.643405 -0.595805,3.102142 -1.411914,4.065275 -0.409795,0.483587 -0.843383,0.792001 -1.222995,0.869907 -0.145264,0.02996 -0.167801,0.03041 -0.271806,0.0075 l 0,0 z"
       id="path3824"
       inkscape:connector-curvature="0" />
    <path
       style="fill:#ff2a2a;fill-opacity:1;stroke:#000000;stroke-width:0.00018411;stroke-linecap:square;stroke-miterlimit:4;stroke-opacity:1;stroke-dasharray:none;display:inline"
       d="m 12.669134,17.751853 c -0.676501,-0.04264 -1.315155,-0.214081 -1.962111,-0.526936 l -0.230996,-0.11166 0.162091,-0.01197 c 0.201406,-0.01699 0.38207,-0.08214 0.600918,-0.21924 0.823946,-0.516202 1.515427,-1.59925 1.880874,-2.945944 0.228496,-0.842059 0.339618,-1.918726 0.271731,-2.632941 C 13.253292,9.8474785 12.536158,8.5756028 11.273906,7.5471454 10.905724,7.2472064 10.40034,6.9222161 10.025831,6.7446276 l -0.06814,-0.032348 0.05952,-0.041292 c 0.398555,-0.2774961 0.93357,-0.5396229 1.414482,-0.693032 1.152419,-0.3676097 2.425398,-0.3199965 3.528361,0.132076 0.833827,0.341686 1.513335,0.8315937 2.118677,1.5274879 0.813815,0.9355265 1.290426,2.015221 1.468641,3.3269275 0.05325,0.392253 0.05292,1.171252 -7.04e-4,1.574624 -0.226258,1.701141 -1.040889,3.148368 -2.320578,4.122579 -0.874383,0.665664 -1.821127,1.020916 -2.911027,1.092423 -0.316026,0.02088 -0.302578,0.02088 -0.645943,-8.8e-4 l 0,0 z"
       id="path3832"
       inkscape:connector-curvature="0" />
    <path
       transform="matrix(1.1538732,0,0,1.2622143,-361.61975,-154.25333)"
       sodipodi:type="arc"
       style="fill:none;stroke:#000000;stroke-width:0.01;stroke-linecap:square;stroke-miterlimit:4;stroke-opacity:1;stroke-dasharray:none;display:inline"
       id="path3776-0"
       sodipodi:cx="345.23611"
       sodipodi:cy="131.2271"
       sodipodi:rx="5.0770016"
       sodipodi:ry="4.7917767"
       d="m 350.31312,131.2271 a 5.0770016,4.7917767 0 1 1 -10.15401,0 5.0770016,4.7917767 0 1 1 10.15401,0 z" />
    <path
       style="fill:none;stroke:#000000;stroke-width:0.01206828;stroke-linecap:butt;stroke-linejoin:miter;stroke-miterlimit:4;stroke-opacity:1;stroke-dasharray:none;display:inline"
       d="m 33.513612,6.3431998 c 0,0 3.883534,1.5840339 3.620244,5.4722082 -0.263292,3.888176 -2.683424,5.382454 -3.275823,4.806421"
       id="path3780-7"
       inkscape:connector-curvature="0"
       sodipodi:nodetypes="csc" />
    <path
       style="fill:#000000;fill-opacity:1;stroke:#000000;stroke-width:0.00018856;stroke-linecap:square;stroke-miterlimit:4;stroke-opacity:1;stroke-dasharray:none;display:inline"
       d="m 34.07572,16.710823 c -0.04247,-0.0089 -0.107287,-0.03317 -0.144242,-0.05364 -0.03692,-0.02031 -0.115762,-0.06275 -0.175241,-0.09441 -0.156878,-0.08367 -0.599495,-0.410653 -0.829346,-0.612796 -0.254082,-0.223432 -0.623046,-0.627155 -0.826589,-0.90437 -0.564705,-0.769181 -0.941835,-1.643297 -1.10188,-2.553971 -0.08146,-0.463539 -0.09082,-0.581318 -0.08966,-1.124216 0.0011,-0.601502 0.03115,-0.875311 0.151258,-1.3883118 0.330539,-1.412009 1.128097,-2.6391118 2.267231,-3.4882942 l 0.17901,-0.1334087 0.18806,0.090085 c 0.908965,0.4348096 1.878197,1.2328397 2.454485,2.0209351 0.710961,0.9722228 1.037771,2.0814386 0.969289,3.2897776 -0.09335,1.646975 -0.623622,3.108866 -1.477834,4.074067 -0.428929,0.484647 -0.882759,0.793712 -1.280095,0.871786 -0.152046,0.03003 -0.175635,0.03047 -0.284499,0.0075 l 0,0 z"
       id="path3824-8"
       inkscape:connector-curvature="0" />
    <path
       style="fill:#ff2a2a;fill-opacity:1;stroke:#000000;stroke-width:0.00018856;stroke-linecap:square;stroke-miterlimit:4;stroke-opacity:1;stroke-dasharray:none;display:inline"
       d="m 36.379498,17.401366 c -0.708084,-0.04273 -1.37656,-0.214528 -2.053722,-0.528063 l -0.241779,-0.111894 0.16966,-0.012 c 0.210812,-0.01689 0.399911,-0.08217 0.628976,-0.219697 0.862418,-0.517305 1.586184,-1.602695 1.96869,-2.952344 0.239166,-0.843852 0.355475,-1.92283 0.284421,-2.638588 C 36.99093,9.4799802 36.240318,8.2053254 34.919134,7.1746898 34.533762,6.8740653 34.004782,6.5484025 33.61279,6.3704152 l -0.07133,-0.032417 0.0623,-0.041532 c 0.417159,-0.2780819 0.977157,-0.5407904 1.480522,-0.6945011 1.206226,-0.3684194 2.538637,-0.3207031 3.693097,0.132213 0.872759,0.3424396 1.583994,0.8333914 2.217597,1.5307753 0.851812,0.9375484 1.350675,2.0195908 1.537212,3.3341336 0.05573,0.393084 0.05538,1.173784 -7.38e-4,1.578029 -0.236821,1.704819 -1.089487,3.15519 -2.428926,4.131462 -0.915206,0.667101 -1.906154,1.023151 -3.046941,1.094815 -0.330781,0.02092 -0.316702,0.02092 -0.676102,-8.82e-4 l 0,0 z"
       id="path3832-5"
       inkscape:connector-curvature="0" />
  </g>
</svg>
